<svg xmlns="http://www.w3.org/2000/svg" viewBox="0 0 448 512"><defs><style>.cls-1{fill:#e2e5e7;}.cls-2{fill:#b0b7bd;}.cls-3{fill:#cad1d8;}.cls-4{fill:#84bd5a;}.cls-5{fill:#fff;}</style></defs><g id="Capa_2" data-name="Capa 2"><g id="Capa_1-2" data-name="Capa 1"><path class="cls-1" d="M96,0A32.09,32.09,0,0,0,64,32V480a32.09,32.09,0,0,0,32,32H416a32.09,32.09,0,0,0,32-32V128L320,0Z"/><path class="cls-2" d="M352,128h96L320,0V96A32.09,32.09,0,0,0,352,128Z"/><polygon class="cls-3" points="448 224 352 128 448 128 448 224"/><path class="cls-4" d="M384,416a16,16,0,0,1-16,16H16A16,16,0,0,1,0,416V256a16,16,0,0,1,16-16H368a16,16,0,0,1,16,16Z"/><path class="cls-5" d="M58.59,339.24c0-24.69,15.47-45.91,44.91-45.91,11.12,0,20,3.31,29.3,11.38a8.3,8.3,0,1,1-11.39,12c-5.25-5.5-10.63-7-17.91-7-19.69,0-29.16,13.93-29.16,29.53,0,15.87,9.32,30.47,29.16,30.47,7.28,0,14.07-3,20-8.2a8.58,8.58,0,0,1,11.76,1.54c2,2.82,3.07,7.54-1.41,12-9,8.33-19.7,10-30.32,10C72.54,385.06,58.59,363.94,58.59,339.24Z"/><path class="cls-3" d="M368,432H64v16H368a16,16,0,0,0,16-16V416A16,16,0,0,1,368,432Z"/><path class="cls-5" d="M160.75,314.81c2.94-24.83,40.41-29.29,58.08-15.72,8.7,7-.52,18.16-8.2,12.52-9.47-6-31-8.81-33.64,4.47-3.46,21,52.19,9,51.29,43-.89,32.49-48,33.24-65.63,18.67a9.46,9.46,0,0,1-1.79-12.55c3.33-3.31,7-4.46,11.39-.88,10.48,7.16,37.49,12.53,39.39-5.64C210,339.77,156.78,351.15,160.75,314.81Z"/><path class="cls-5" d="M274,377.55,240.2,306.8c-5-10.11,10.12-18.41,15.73-7.81l11.39,25.72L282,358.48l14.45-33.77L307.87,299c5.12-9.71,19.95-3.58,15.61,7l-32.62,71.52C287.92,385.62,278.84,387.52,274,377.55Z"/></g></g></svg>