<svg xmlns="http://www.w3.org/2000/svg" viewBox="0 0 448 512"><defs><style>.cls-1{fill:#e2e5e7;}.cls-2{fill:#b0b7bd;}.cls-3{fill:#cad1d8;}.cls-4{fill:#50bee8;}.cls-5{fill:#fff;}</style></defs><g id="Capa_2" data-name="Capa 2"><g id="Capa_1-2" data-name="Capa 1"><path class="cls-1" d="M96,0A32.09,32.09,0,0,0,64,32V480a32.09,32.09,0,0,0,32,32H416a32.09,32.09,0,0,0,32-32V128L320,0Z"/><path class="cls-2" d="M352,128h96L320,0V96A32.09,32.09,0,0,0,352,128Z"/><polygon class="cls-3" points="448 224 352 128 448 128 448 224"/><path class="cls-4" d="M384,416a16,16,0,0,1-16,16H16A16,16,0,0,1,0,416V256a16,16,0,0,1,16-16H368a16,16,0,0,1,16,16Z"/><path class="cls-3" d="M368,432H64v16H368a16,16,0,0,0,16-16V416A16,16,0,0,1,368,432Z"/><path class="cls-5" d="M26.64,383.23c-4.22,0-8.83-2.32-8.83-7.94V302.63c0-4.6,4.61-7.93,8.83-7.93h29.3c58.46,0,57.16,88.53,1.13,88.53ZM34.7,310.3v57.31H55.94c34.54,0,36.06-57.31,0-57.31Z"/><path class="cls-5" d="M153.3,385.44c-23.67,1-48.24-14.72-48.24-46.06s24.56-46.95,48.24-46.95c22.38,1.14,45.79,16.63,45.79,46.95S175.68,385.44,153.3,385.44Zm-1.41-76.37c-14.34,0-29.94,10.12-29.94,30.32s15.62,30.34,29.94,30.34c14.72,0,30.45-10.24,30.45-30.34S166.61,309.07,151.89,309.07Z"/><path class="cls-5" d="M205.33,339c0-24.69,15.49-45.92,44.91-45.92,11.14,0,20,3.33,29.3,11.39a8.3,8.3,0,1,1-11.39,12c-5.24-5.51-10.61-7-17.91-7-19.69,0-29.15,14-29.15,29.56,0,15.87,9.33,30.44,29.15,30.44,7.3,0,14.08-3,20-8.19A8.59,8.59,0,0,1,282,362.82c2,2.81,3.06,7.55-1.41,12-9,8.34-19.69,10-30.33,10C219.28,384.83,205.33,363.7,205.33,339Z"/><path class="cls-5" d="M330,325.53l22.25-27.89c6.66-8.71,19.59,2.41,12.29,10.73-7.66,9.09-15.73,18.95-23.41,29l26.1,32.5c7,9.6-7,18.8-13.94,9.33l-23.55-30.19-23.15,30.84c-6.53,9.33-21-1.15-13.7-9.85l25.71-32.63c-8.06-10.11-15.87-20-23.66-29-8.05-9.6,6.91-19.44,12.8-10.46Z"/></g></g></svg>