<svg xmlns="http://www.w3.org/2000/svg" viewBox="0 0 448 512"><defs><style>.cls-1{fill:#e2e5e7;}.cls-2{fill:#b0b7bd;}.cls-3{fill:#cad1d8;}.cls-4{fill:#576d7e;}.cls-5{fill:#fff;}</style></defs><g id="Capa_2" data-name="Capa 2"><g id="Capa_1-2" data-name="Capa 1"><path class="cls-1" d="M96,0A32.09,32.09,0,0,0,64,32V480a32.09,32.09,0,0,0,32,32H416a32.09,32.09,0,0,0,32-32V128L320,0Z"/><path class="cls-2" d="M352,128h96L320,0V96A32.09,32.09,0,0,0,352,128Z"/><polygon class="cls-3" points="448 224 352 128 448 128 448 224"/><path class="cls-4" d="M384,416a16,16,0,0,1-16,16H16A16,16,0,0,1,0,416V256a16,16,0,0,1,16-16H368a16,16,0,0,1,16,16Z"/><path class="cls-3" d="M368,432H64v16H368a16,16,0,0,0,16-16V416A16,16,0,0,1,368,432Z"/><path class="cls-5" d="M250.63,312H228.26c-11.14,0-11.14-16.37,0-16.37h60.49c11.4,0,11.4,16.37,0,16.37H267.52v64.61c0,11.12-16.89,11.39-16.89,0Z"/><path class="cls-5" d="M188.61,303.62c0-10.5,16.9-10.88,16.9,0v73c0,10.6-16.9,10.88-16.9,0Z"/><path class="cls-5" d="M164.82,374.66c-9.09,7.55-20.22,10.75-31.47,10.75-26.88,0-45.94-15.34-45.94-45.81,0-25.82,20.1-45.9,47.07-45.9,10.12,0,21.24,3.44,29.17,11.25S160.2,324,152.53,317.24c-4.73-4.61-11.39-8.07-18.05-8.07-15.47,0-30.43,12.4-30.43,30.43,0,18.95,12.53,30.47,29.3,30.47a32.64,32.64,0,0,0,19.18-5.76V348.58H133.35c-11.39,0-10.24-15.62,0-15.62h25.58c4.74,0,9.07,3.59,9.07,7.56v27.24C168,370.07,167,372.21,164.82,374.66Z"/></g></g></svg>