<svg xmlns="http://www.w3.org/2000/svg" viewBox="0 0 448 512"><defs><style>.cls-1{fill:#e2e5e7;}.cls-2{fill:#b0b7bd;}.cls-3{fill:#cad1d8;}.cls-4{fill:#50bee8;}.cls-5{fill:#fff;}</style></defs><g id="Capa_2" data-name="Capa 2"><g id="Capa_1-2" data-name="Capa 1"><path class="cls-1" d="M96,0A32.09,32.09,0,0,0,64,32V480a32.09,32.09,0,0,0,32,32H416a32.09,32.09,0,0,0,32-32V128L320,0Z"/><path class="cls-2" d="M352,128h96L320,0V96A32.09,32.09,0,0,0,352,128Z"/><polygon class="cls-3" points="448 224 352 128 448 128 448 224"/><path class="cls-4" d="M384,416a16,16,0,0,1-16,16H16A16,16,0,0,1,0,416V256a16,16,0,0,1,16-16H368a16,16,0,0,1,16,16Z"/><path class="cls-5" d="M75,303.15c0-10.75,16.89-10.75,16.89,0v50.53c0,20.1-9.6,32.26-31.72,32.26-10.88,0-20-3-27.89-13.19-6.53-7.81,5.76-19.05,12.41-10.88,5.38,6.66,11.14,8.19,16.76,7.94,7.15-.26,13.44-3.47,13.56-16.13V303.15Z"/><path class="cls-5" d="M114.34,303.15a8.81,8.81,0,0,1,8.71-8.83H152.6c16.64,0,31.62,11.14,31.62,32.48,0,20.22-15,31.49-31.62,31.49H131.24v16.89c0,5.64-3.58,8.82-8.19,8.82a8.63,8.63,0,0,1-8.71-8.82v-72Zm16.9,7.28V342.3H152.6c8.58,0,15.36-7.56,15.36-15.5,0-8.94-6.78-16.37-15.36-16.37Z"/><path class="cls-5" d="M347.58,374.16c-9.09,7.55-20.23,10.75-31.48,10.75-26.88,0-45.93-15.34-45.93-45.81,0-25.82,20.09-45.9,47.07-45.9,10.11,0,21.23,3.44,29.17,11.25,7.79,7.66-3.46,19.05-11.12,12.29-4.74-4.61-11.39-8.07-18.05-8.07-15.47,0-30.43,12.4-30.43,30.43,0,18.95,12.53,30.47,29.29,30.47a32.68,32.68,0,0,0,19.19-5.76V348.08H316.1c-11.39,0-10.24-15.62,0-15.62h25.59c4.73,0,9.07,3.59,9.07,7.56v27.24C350.76,369.57,349.75,371.71,347.58,374.16Z"/><path class="cls-3" d="M368,432H64v16H368a16,16,0,0,0,16-16V416A16,16,0,0,1,368,432Z"/><path class="cls-5" d="M205,383.73a7.81,7.81,0,0,1-7.94-7.93V303.14a7.74,7.74,0,0,1,7.94-7.93H251c11.77,0,11.52,16.62,0,16.62H214.12V331h32.24c11.37,0,11.37,16.77,0,16.77H214.12V367h39c11.65,0,12.53,16.75,0,16.75Z"/></g></g></svg>