<svg xmlns="http://www.w3.org/2000/svg" viewBox="0 0 448 512"><defs><style>.cls-1{fill:#e2e5e7;}.cls-2{fill:#b0b7bd;}.cls-3{fill:#cad1d8;}.cls-4{fill:#f15642;}.cls-5{fill:#fff;}</style></defs><g id="Capa_2" data-name="Capa 2"><g id="Capa_1-2" data-name="Capa 1"><path class="cls-1" d="M96,0A32.09,32.09,0,0,0,64,32V480a32.09,32.09,0,0,0,32,32H416a32.09,32.09,0,0,0,32-32V128L320,0Z"/><path class="cls-2" d="M352,128h96L320,0V96A32.09,32.09,0,0,0,352,128Z"/><polygon class="cls-3" points="448 224 352 128 448 128 448 224"/><path class="cls-4" d="M384,416a16,16,0,0,1-16,16H16A16,16,0,0,1,0,416V256a16,16,0,0,1,16-16H368a16,16,0,0,1,16,16Z"/><path class="cls-5" d="M30.46,303.15a8.8,8.8,0,0,1,8.68-8.83H68.7c16.64,0,31.61,11.14,31.61,32.48,0,20.22-15,31.49-31.61,31.49H47.34v16.89c0,5.64-3.57,8.82-8.18,8.82a8.62,8.62,0,0,1-8.69-8.82v-72Zm16.88,7.28V342.3H68.7c8.57,0,15.36-7.56,15.36-15.5,0-8.94-6.79-16.37-15.36-16.37Z"/><path class="cls-5" d="M116.62,303.15a8.8,8.8,0,0,1,8.7-8.83h29.55c16.64,0,31.62,11.14,31.62,32.48,0,20.22-15,31.49-31.62,31.49H133.51v16.89c0,5.64-3.58,8.82-8.19,8.82a8.63,8.63,0,0,1-8.7-8.82v-72Zm16.88,7.28V342.3h21.36c8.57,0,15.36-7.56,15.36-15.5,0-8.94-6.79-16.37-15.36-16.37Z"/><path class="cls-5" d="M226.68,311.47H204.31c-11.13,0-11.13-16.37,0-16.37h60.5c11.39,0,11.39,16.37,0,16.37H243.58v64.61c0,11.12-16.9,11.39-16.9,0Z"/><path class="cls-3" d="M368,432H64v16H368a16,16,0,0,0,16-16V416A16,16,0,0,1,368,432Z"/><path class="cls-5" d="M325.26,325.53l22.26-27.89c6.65-8.71,19.58,2.41,12.28,10.73-7.66,9.09-15.72,18.95-23.4,29l26.09,32.5c7,9.6-7,18.8-13.93,9.33L325,349.05l-23.15,30.84c-6.53,9.33-21-1.15-13.69-9.85l25.71-32.63c-8.07-10.11-15.87-20-23.67-29-8-9.6,6.92-19.44,12.8-10.46Z"/></g></g></svg>