<svg xmlns="http://www.w3.org/2000/svg" viewBox="0 0 448 512"><defs><style>.cls-1{fill:#e2e5e7;}.cls-2{fill:#b0b7bd;}.cls-3{fill:#cad1d8;}.cls-4{fill:#84bd5a;}.cls-5{fill:#fff;}</style></defs><g id="Capa_2" data-name="Capa 2"><g id="Capa_1-2" data-name="Capa 1"><path class="cls-1" d="M96,0A32.09,32.09,0,0,0,64,32V480a32.09,32.09,0,0,0,32,32H416a32.09,32.09,0,0,0,32-32V128L320,0Z"/><path class="cls-2" d="M352,128h96L320,0V96A32.09,32.09,0,0,0,352,128Z"/><polygon class="cls-3" points="448 224 352 128 448 128 448 224"/><path class="cls-4" d="M384,416a16,16,0,0,1-16,16H16A16,16,0,0,1,0,416V256a16,16,0,0,1,16-16H368a16,16,0,0,1,16,16Z"/><path class="cls-5" d="M71.34,326.19,93.59,298.3c6.66-8.7,19.59,2.42,12.29,10.74-7.66,9.09-15.73,18.94-23.41,29l26.1,32.5c7,9.6-7,18.8-13.94,9.32L71.08,349.71,47.93,380.56c-6.53,9.33-21-1.15-13.7-9.86l25.71-32.62C51.88,328,44.07,318.13,36.28,309c-8-9.6,6.91-19.44,12.8-10.46Z"/><path class="cls-5" d="M313.34,326.19l22.25-27.89c6.66-8.7,19.59,2.42,12.29,10.74-7.66,9.09-15.73,18.94-23.41,29l26.1,32.5c7,9.6-7,18.8-13.94,9.32l-23.55-30.19-23.15,30.85c-6.53,9.33-21-1.15-13.7-9.86l25.71-32.62c-8.06-10.11-15.87-19.95-23.66-29-8-9.6,6.91-19.44,12.8-10.46Z"/><path class="cls-5" d="M124.36,303.15a8,8,0,0,1,8.06-7.81,7.81,7.81,0,0,1,7.56,7.81v64.1h34.8c12.52,0,12.8,16.75,0,16.75H132.44a7.72,7.72,0,0,1-8.06-7.79V303.15Z"/><path class="cls-5" d="M199,314.67c2.95-24.83,40.42-29.29,58.08-15.73,8.71,7-.51,18.16-8.19,12.53-9.47-6-31-8.81-33.65,4.47-3.45,21,52.19,9,51.3,43-.9,32.5-48,33.25-65.63,18.68a9.47,9.47,0,0,1-1.8-12.55c3.33-3.31,7-4.46,11.4-.88,10.48,7.15,37.48,12.53,39.39-5.65C248.28,339.63,195.06,351,199,314.67Z"/><path class="cls-3" d="M368,432H64v16H368a16,16,0,0,0,16-16V416A16,16,0,0,1,368,432Z"/></g></g></svg>