<svg xmlns="http://www.w3.org/2000/svg" xmlns:xlink="http://www.w3.org/1999/xlink" viewBox="0 0 1000 1000"><defs><style>.cls-1{fill:url(#Degradado_sin_nombre_4);}.cls-2{fill:url(#Degradado_sin_nombre_2);}.cls-3{fill:url(#Degradado_sin_nombre_35);}.cls-4{fill:url(#Degradado_sin_nombre_2-2);}</style><linearGradient id="Degradado_sin_nombre_4" x1="12007.93" y1="4327.1" x2="13007.93" y2="4327.1" gradientTransform="translate(-12007.93 -3827.1)" gradientUnits="userSpaceOnUse"><stop offset="0" stop-color="#fcc01f"/><stop offset="1" stop-color="#ffd100"/></linearGradient><linearGradient id="Degradado_sin_nombre_2" x1="12007.93" y1="4586.62" x2="12325.87" y2="4586.62" gradientTransform="translate(-3827.1 13007.93) rotate(-90)" gradientUnits="userSpaceOnUse"><stop offset="0" stop-color="#ffd100"/><stop offset="0.99" stop-color="#ffe163"/></linearGradient><linearGradient id="Degradado_sin_nombre_35" x1="12304.95" y1="4395.4" x2="12666.99" y2="4193.34" gradientTransform="translate(-3827.1 13007.93) rotate(-90)" gradientUnits="userSpaceOnUse"><stop offset="0" stop-color="#f49800"/><stop offset="0.53" stop-color="#ffd100"/><stop offset="1" stop-color="#ffe943"/></linearGradient><linearGradient id="Degradado_sin_nombre_2-2" x1="12533.34" y1="3939.99" x2="13007.93" y2="3939.99" xlink:href="#Degradado_sin_nombre_2"/></defs><g id="Capa_2" data-name="Capa 2"><g id="Capa_2-2" data-name="Capa 2"><rect class="cls-1" width="1000" height="1000" transform="translate(0 1000) rotate(-90)"/><path class="cls-2" d="M1000,682.06C743.13,731.69,579.59,854,522,992.15q-1.63,3.93-3,7.85h481Z"/><path class="cls-3" d="M264.44,1000c92-23.33,211.46-68.71,281.63-154.67,127-155.56,59.64-275.64,254.68-369.87C847.09,453.07,920,433,1000,415.87V161.23c-14.3,3.17-28.12,6.27-41.21,9.26-138.82,31.69-208,9.1-415,47.85C301.46,263.7,231.07,400.41,124.24,502.59,96.2,529.42,50.17,556.1,0,580.17V1000Z"/><path class="cls-4" d="M225.78,209.23C225.78,131.53,177.6,59.45,95.4,0H0V474.59C139.19,407.51,225.78,313.42,225.78,209.23Z"/></g></g></svg>