<svg xmlns="http://www.w3.org/2000/svg" viewBox="0 0 323.9 294.98"><defs><style>.cls-1{fill:#fff;}</style></defs><g id="Capa_2" data-name="Capa 2"><g id="Capa_2-2" data-name="Capa 2"><path class="cls-1" d="M96.18,167.15h8.09l.39.84c10.68,23.21,34.4,38.21,60.44,38.21s49.77-15,60.45-38.21l.39-.84H234l-.84,2c-11.47,26.95-38.2,44.37-68.09,44.37S108.49,196.06,97,169.11ZM204.11,59.59a67.7,67.7,0,0,1,41.68,27.46c1.32,1.84,2.59,3.82,3.78,5.88l.42.72h8.44l-1.13-2.09a83.34,83.34,0,0,0-5.37-8.65,75.06,75.06,0,0,0-41.82-29.35L230.92,7.27h49.35V0H226L199.67,58.64ZM159.22,77.22h5.88A67.12,67.12,0,0,1,208.78,93.3l.41.35h10.67l-2.46-2.42a74.3,74.3,0,0,0-46.52-21.07L204.75,0H147V7.27h46ZM265.4,168.94l.5-1.79h-7.73l-.3,1a91.7,91.7,0,0,1-23.77,39.51c-18,17.62-42.48,27.32-69,27.32a96.46,96.46,0,0,1-57.79-18.95,94.21,94.21,0,0,1-34.07-47.9l-.31-1H65.18l.52,1.8c12.49,43.18,53.37,73.33,99.4,73.33,23.57,0,45.64-7.13,63.84-20.63A98.21,98.21,0,0,0,265.4,168.94Zm58.5-15.34a1.85,1.85,0,0,1-1.87,1.82h-3.62a9.72,9.72,0,0,1-9.54-7.89c-.29-1.27-2.4-8-2.4-8H294.16s-2.32,6.68-2.32,8.78a3.51,3.51,0,0,0,2,3.56,1.82,1.82,0,0,1-.71,3.52H278.24a15.72,15.72,0,0,1-14-8.37c-.7-1.36-10-15.87-10-15.87a5.87,5.87,0,0,1-.78-1.79v13.24c0,4.67-.1,7.87,2.21,9.22a1.83,1.83,0,0,1,1.15,1.69,1.86,1.86,0,0,1-1.89,1.83h-17a15.72,15.72,0,0,1-13.74-7.92l-4.54-7.7c-2.13-3.57-4.91-7.46-6.72-7.3h-.23a.94.94,0,0,0-.76.73s0,9.77,0,9.88c0,4.43,0,7.46,2.21,8.77a1.84,1.84,0,0,1,1.15,1.69,1.86,1.86,0,0,1-1.89,1.83H200.52a1.86,1.86,0,0,1-1.89-1.83,1.84,1.84,0,0,1,1.15-1.69c2.31-1.35,2.21-4.55,2.21-9.22V116.69c0-4.67.1-7.87-2.21-9.22a1.84,1.84,0,0,1-1.15-1.69,1.86,1.86,0,0,1,1.89-1.83h16.85c3.1.15,7.81.39,10.66,1.86,4.19,2,6.39,6.22,6.39,11.65a12.22,12.22,0,0,1-10.14,12.28s11.63,18.1,13.18,20.12c.19.24,1,1.12,1.17,1.27a2.84,2.84,0,0,0,4-.67c.93-1.69.87-4.35.87-7.83V116.69c0-4.67.11-7.87-2.21-9.22a1.84,1.84,0,0,1-1.14-1.69,1.85,1.85,0,0,1,1.88-1.83h12.86a1.86,1.86,0,0,1,1.89,1.83,1.83,1.83,0,0,1-1.15,1.69c-2.31,1.35-2.21,4.55-2.21,9.22v10.06a5.64,5.64,0,0,1,1.11-2.23L265.8,110a1.6,1.6,0,0,0-.34-2.37,5.94,5.94,0,0,0-2.15-.72,1.46,1.46,0,0,1-1.28-1.49,1.44,1.44,0,0,1,1.38-1.49h11.34a1.85,1.85,0,0,1,1.87,1.82,1.82,1.82,0,0,1-1.15,1.69,7.52,7.52,0,0,0-3,2.16,20.76,20.76,0,0,0-1.35,1.58l-10,12.86s15.61,24.09,16.28,25.05a4.65,4.65,0,0,0,7.54.14c1.68-2.61,2.69-6.23,3.65-9L300.44,106a2.54,2.54,0,0,1,4.93,0l12.4,37.23c.71,2.09,2,6,3.3,7.53a5,5,0,0,0,1.64,1.14A1.83,1.83,0,0,1,323.9,153.6ZM223.7,118.32c0-7.07-2.46-10.8-8.53-10.8-.71,0-3.1-.07-3.3.86v19.16h6.22a5.54,5.54,0,0,0,4.49-2.94A14.88,14.88,0,0,0,223.7,118.32Zm80.65,15.06a1.09,1.09,0,0,0,0-.26L301.05,123a.71.71,0,0,0-1.36,0l-3.34,10.14a.81.81,0,0,0,.66,1h6.6A.78.78,0,0,0,304.35,133.38ZM160.56,151.85a1.84,1.84,0,0,0-1.14,1.69,1.85,1.85,0,0,0,1.88,1.83h30.5a2.69,2.69,0,0,0,2.57-2.84v-7.29a1.85,1.85,0,0,0-1.87-1.83,1.87,1.87,0,0,0-1.83,1.43c-1.78,5.26-4.77,7-10.65,7-5.72,0-7-2.62-7.34-7,0-.68,0-13.42,0-13.42h2.53a6.64,6.64,0,0,1,5.22,3.14,1.87,1.87,0,0,0,3.6-.67V124a1.83,1.83,0,0,0-1.85-1.81,1.85,1.85,0,0,0-1.67,1,6.61,6.61,0,0,1-5.29,3.28h-2.51s0-11.31,0-12c.28-4.14,1.47-6.71,6.41-7,4.44.22,7.48,1.87,9,6.19a1.87,1.87,0,0,0,3.68-.44v-6.57A2.69,2.69,0,0,0,189.2,104H161.3a1.85,1.85,0,0,0-1.88,1.83,1.84,1.84,0,0,0,1.14,1.69c2.32,1.35,2.21,4.55,2.21,9.22v25.94C162.78,147.3,162.88,150.5,160.56,151.85Zm-54.27,0a1.83,1.83,0,0,0-1.15,1.69,1.86,1.86,0,0,0,1.89,1.83H115a1.85,1.85,0,0,0,1.88-1.83,1.84,1.84,0,0,0-1.14-1.69c-1.71-1-2.1-3-2.19-5.87v-25.3l11,32.07a3.61,3.61,0,0,0,7-.17l9.93-30.89v20.94c0,4.67.1,7.87-2.22,9.22a1.84,1.84,0,0,0-1.14,1.69,1.85,1.85,0,0,0,1.88,1.83h12.87a1.85,1.85,0,0,0,1.88-1.83,1.84,1.84,0,0,0-1.14-1.69c-2.32-1.35-2.22-4.55-2.22-9.22,0,0,0,0,0-25.94,0-4.67-.11-7.87,2.21-9.22a1.84,1.84,0,0,0,1.14-1.69,1.8,1.8,0,0,0-2-1.78h-9.22a2.21,2.21,0,0,0-2.16,1.74l-11.08,34.39-12-34.43a2.27,2.27,0,0,0-2.15-1.76H107a1.86,1.86,0,0,0-1.89,1.83,1.83,1.83,0,0,0,1.15,1.69c2.31,1.35,2.21,4.55,2.21,9.22v25.94C108.5,147.3,108.6,150.5,106.29,151.85Zm-21.39,0a1.84,1.84,0,0,0-1.14,1.69,1.85,1.85,0,0,0,1.88,1.83H98.51a1.85,1.85,0,0,0,1.88-1.83,1.84,1.84,0,0,0-1.14-1.69C96.93,150.5,97,147.3,97,142.63c0,0,0,0,0-25.94,0-4.67-.1-7.87,2.22-9.22a1.84,1.84,0,0,0,1.14-1.69A1.85,1.85,0,0,0,98.51,104H85.64a1.85,1.85,0,0,0-1.88,1.83,1.84,1.84,0,0,0,1.14,1.69c2.32,1.35,2.21,4.55,2.21,9.22v25.94C87.12,147.3,87.22,150.5,84.9,151.85Zm-73,3.53h-10A1.85,1.85,0,0,1,0,153.56a1.81,1.81,0,0,1,1.14-1.68c3.42-2,4.9-7.71,6.27-11.65l11.87-34.31a2.53,2.53,0,0,1,4.92,0l12.41,37.23c.46,1.36,1.17,3.49,2,5.23a4.64,4.64,0,0,0,4.24,2.7,4.59,4.59,0,0,0,4.45-3.28,48,48,0,0,0,.15-5.2V116.69c0-4.67.11-7.87-2.2-9.22a1.83,1.83,0,0,1-1.15-1.69A1.85,1.85,0,0,1,45.94,104H58.81a1.85,1.85,0,0,1,1.88,1.83,1.84,1.84,0,0,1-1.14,1.69c-2.32,1.35-2.21,4.55-2.21,9.22,0,0,0,27.47,0,28.14.3,4.39,1.62,7,7.34,7,5.88,0,8.87-1.72,10.65-7a1.88,1.88,0,0,1,3.7.4v7.29a2.7,2.7,0,0,1-2.57,2.85h-38l-1.2,0a9.71,9.71,0,0,1-9.53-7.89c-.29-1.26-2.4-7.95-2.4-7.95H13s-2.32,6.68-2.32,8.77a3.51,3.51,0,0,0,1.94,3.56,1.82,1.82,0,0,1-.7,3.52Zm3.24-22a.78.78,0,0,0,.69.8h6.59a.78.78,0,0,0,.75-.81,1,1,0,0,0,0-.25L19.89,123a.75.75,0,0,0-.68-.5.74.74,0,0,0-.68.52l-3.35,10.14A1.64,1.64,0,0,0,15.16,133.35Zm12.2,56L15.72,202l-1.16-2.59,2.81-3-3-6.59-4.09.12-1.13-2.5,17.15-.36Zm-3.53.18L17,189.7l2.16,4.8Zm19.81,21.77c-.43-.63-.4-2.15-1.08-3.14s-1.94-1.08-3.65-.48l.43,1.47c.8-.14,1.24-.13,1.6.4s.4,2.15,1.07,3.14,1.93,1.06,3.65.48l-.46-1.48C44.43,211.83,44,211.82,43.64,211.29Zm-10.43,10,4.39-12.84-1.39-2.06-13,8.78,1.48,2.18,9.24-6.24-4.52,13.22,1.26,1.86,13-8.78-1.48-2.19Zm24.43,11.93a7.86,7.86,0,0,1-.23,11.33l0,0a8,8,0,1,1-11.17-11.41l0,0A7.94,7.94,0,0,1,57.64,233.22ZM55.79,235a5.23,5.23,0,0,0-7.55.17l0,0a5.31,5.31,0,0,0-.38,7.6,5.24,5.24,0,0,0,7.56-.16l0,0A5.3,5.3,0,0,0,55.79,235ZM77,250.13c-2.45-1.79-5.31-1.57-6.89.6l0,0c-1.7,2.33-.8,4.2,1.35,6.77,1.89,2.21,2,3.06,1.37,4l0,0c-.7,1-2,1-3.34,0a7,7,0,0,1-2.7-4.49l-2.46.64A9.23,9.23,0,0,0,68,263.47c2.59,1.89,5.43,1.81,7.16-.56l0,0c1.53-2.1.88-4-1.25-6.6-1.94-2.3-2.19-3.15-1.48-4.12l0,0c.61-.83,1.83-1,3.1,0a6.8,6.8,0,0,1,2.4,3.74l2.39-.83A8.34,8.34,0,0,0,77,250.13Zm37.84,20.1a7.81,7.81,0,0,0-10.18,4.89l0,0a7.94,7.94,0,0,0,11.28,9.78l-1-2.28a5.9,5.9,0,0,1-4.82.4c-2.74-1-3.86-4.09-2.8-7v0c1.06-2.88,3.9-4.46,6.64-3.45a6,6,0,0,1,3.34,3.3l2.32-1.32A7.86,7.86,0,0,0,114.86,270.23Zm26.3,16.24c-.51,2.85-2.2,4-4.54,3.63s-3.53-2.22-3-5.08l1.55-8.78-2.64-.47-1.57,8.89c-.8,4.47,1.28,7.23,5.19,7.92s6.88-1.16,7.69-5.77l1.55-8.75-2.64-.47Zm29.78-7.36-4.52,7.49-4.77-7.33-2.85,0,.26,15.67,2.64,0-.19-11.19,4.9,7.26h.08l4.7-7.47.19,11.24,2.68,0-.26-15.67Zm29.15,1.47c.66,3.45-1.7,5.77-5,6.39l-3,.57.94,4.95-2.64.5-2.92-15.4,5.92-1.12c3.49-.67,6.08,1,6.67,4.06Zm-2.67.57v0c-.35-1.81-1.79-2.51-3.76-2.14l-3.06.58,1.05,5.55,3.06-.58C196.7,284.14,197.73,282.76,197.42,281.15Zm20.94,2.19L213.85,271l-2.52.92,5.36,14.72,10.06-3.67-.85-2.35Zm14.82-20.7,7.31,13.86,2.38-1.25-7.32-13.87Zm24.45.67-2.45-3.42,6.21-4.47-1.44-2-6.21,4.47-2.38-3.31,7-5-1.44-2-9.19,6.61,9.16,12.72,9.27-6.67-1.44-2Zm16.87-31.9,7.71,7.62-13.46-1.8L267,239l11.14,11,1.85-1.87-7.92-7.84,13.84,1.85,1.58-1.59-11.14-11Zm26.81-8.25-3.25,4.67-12.87-8.94,3.24-4.67c2.74-3.94,7.41-4.73,11-2.22l0,0A7.74,7.74,0,0,1,301.31,223.16Zm-3.38-8.8,0,0a5.08,5.08,0,0,0-7.4,1.31l-1.71,2.47,8.75,6.08,1.72-2.47A5,5,0,0,0,297.93,214.36Zm19.18-18.15a7.87,7.87,0,0,1-10.66,3.86l0,0a8,8,0,1,1,6.64-14.52l0,0A7.93,7.93,0,0,1,317.11,196.21ZM312,188.13l0,0a5.3,5.3,0,0,0-7.23,2.38,5.24,5.24,0,0,0,2.87,7l0,0a5.31,5.31,0,0,0,7.24-2.39A5.24,5.24,0,0,0,312,188.13Z"/></g></g></svg>