<?xml version="1.0" encoding="UTF-8"?><svg id="Capa_2" xmlns="http://www.w3.org/2000/svg" viewBox="0 0 629.15 205.19"><defs><style>.cls-1{fill:#fff;}.cls-2{fill:#c54533;}.cls-3{fill:#c44632;}.cls-4{fill:#ffd100;}.cls-5{fill:none;}.cls-6{fill:#ae773f;}</style></defs><g id="Capa_1-2"><g><path class="cls-1" d="M400.99,144.94c-3.63,0-7.43-.67-11.29-2-10.33-3.55-18.25-11.68-21.19-21.75-2.9-9.93-.28-22.08,6.68-30.94,6.56-8.35,16.49-10.58,25.55-11.51l.41-.6c2.15-3.12,4.37-6.34,7.34-9,.42-.38,.97-.61,1.54-.63,.14-.02,.28-.04,.42-.04,.24,0,.48,.04,.72,.11,.8,.24,1.61,.5,2.45,.79,.06-1.06,.21-2.17,.52-3.26,.49-1.75,1.35-2.98,2.58-3.66,.59-.33,1.21-.5,1.86-.5,2.2,0,3.89,1.97,4.41,3.92,.45,1.66,.19,3.47-.74,5.1-.32,.56-.71,1.07-1.18,1.55,.33,.35,.55,.8,.63,1.28,.09,.28,.12,.58,.1,.88-.2,3.01-.19,6.11-.17,9.12,0,.59,0,1.18,0,1.77,7.54,5.78,11.55,12.82,12.24,21.5,.42,5.28-.27,10.63-2.05,15.9-1.16,3.41-3.04,6.81-5.94,10.69-4,5.36-10.54,8.99-19.43,10.76-1.76,.35-3.6,.53-5.46,.53Z"/><g><path class="cls-4" d="M370.43,120.63c2.82,9.65,10.44,17.16,19.92,20.42,5.05,1.73,10.43,2.45,15.71,1.4,6.92-1.38,13.9-4.22,18.22-10,2.32-3.11,4.4-6.44,5.65-10.13,1.64-4.84,2.36-9.99,1.95-15.1-.73-9.18-5.29-15.69-12.62-20.93-.02-.11-.08-.22-.21-.3-4.7-3.12-9.56-5.47-15.29-5.42-.08-.05-.18-.08-.3-.07-9.93,.81-20.19,2.7-26.7,10.99-6.21,7.91-9.2,19.32-6.33,29.14Z"/><g><path class="cls-6" d="M402.36,81.1c.06,.15,.19,.27,.42,.27,5.62,.03,11.27,1.59,15.67,5.17,.07,.06,.14,.08,.21,.1,.14,.5,.98,.52,.98-.08,0-4.01-.09-8.01,.17-12.01,0-.11-.02-.2-.07-.28,.01-.2-.08-.41-.31-.51-.76-.33-1.52-.64-2.29-.95,1.36-.62,2.64-1.53,3.38-2.83,.61-1.08,.88-2.37,.55-3.58-.37-1.37-1.78-3.08-3.37-2.2-.89,.5-1.36,1.51-1.63,2.45-.5,1.8-.52,3.72-.44,5.58-1.66-.63-3.33-1.21-5.03-1.72-.14-.04-.25-.02-.35,.03-.14-.03-.28-.01-.42,.11-3.12,2.79-5.4,6.29-7.76,9.71-.23,.33,0,.67,.29,.75Zm14.64-14.05c.14-.49,.29-.95,.56-1.35,.19-.28,.39-.5,.61-.61,.4-.2,.86-.08,1.22,.3,.48,.5,.76,1.21,.8,1.89,.1,2.23-1.64,3.76-3.56,4.66-.07-1.63-.06-3.32,.38-4.88Zm-6.61,4.44c2.86,.87,5.65,1.92,8.41,3.09-.23,3.61-.18,7.22-.17,10.84-4.36-3.38-9.88-4.93-15.36-5.04,2.16-3.14,4.28-6.32,7.13-8.89Z"/><path class="cls-6" d="M418.63,100.86c-.87-1.2-1.91-2.28-3.03-3.14-2.46-1.89-5.06-2.05-7.67-.97-.64-1.59-1.77-2.95-3.58-3.81-2.28-1.09-4.76-1.04-6.98-.19-.72-1.31-1.74-2.44-3.07-3.18-2.69-1.5-5.56-1.07-8.11,.3-1.47-1.25-3.54-1.63-5.87-1.07-.59,.14-.41,1.07,.19,.93,2.22-.53,3.8-.2,4.89,.61-.29,.18-.57,.37-.85,.57-2.39,1.74-5.52,5.19-3.73,8.39,1.08,1.92,3.56,3.74,5.5,1.72,1.85-1.92,2.49-5.14,1.87-7.71-.27-1.11-.73-2.03-1.32-2.75,1.74-.93,3.68-1.48,5.4-.88,1.78,.62,3.21,1.9,4.17,3.47-1.43,.71-2.71,1.76-3.71,3.04-1.87,2.39-3.65,7.31-1.04,9.84,2.62,2.55,6.31-3.24,6.76-5.25,.51-2.28,.31-4.96-.67-7.22,.59-.23,1.21-.4,1.84-.47,2.92-.33,6.42,1.11,7.57,4-.32,.16-.64,.34-.97,.54-2.64,1.63-6.32,4.91-5.33,8.48,.5,1.78,2.84,5.14,5.03,3.35,2.19-1.8,2.66-5.62,2.72-8.25,.03-1.3-.1-2.59-.46-3.77,1.47-.63,2.99-.84,4.31-.4,1.87,.62,3.88,2.26,5.4,4.27-2.01,1.4-3.14,4.12-3.26,6.5-.07,1.48,.02,3.94,1.64,4.66,2.68,1.2,5.03-2.66,4.91-4.91-.1-2.04-.87-4.07-2-5.87,2.1-1.15,4.76-1.14,6.76,.53,2.62,2.2,3.94,5.53,4.14,8.89,.04,.6,.99,.67,.95,.05-.38-6.13-5.67-14.1-12.4-10.32Zm-34.53,.1c-4.29-.72-2.68-6.03-.54-8,.69-.64,1.57-1.34,2.55-1.94,2.67,3.23,.64,10.39-2,9.95Zm9.67,4.5c-3.59,1.3-2.05-5.88-1.27-7.22,1.01-1.74,2.55-3.32,4.38-4.26,.47,.98,.78,2.03,.88,3.12,.27,2.92-.85,7.23-3.99,8.36Zm13.79-2.54c-.23,1.73-.57,3.95-1.74,5.34-1.77,2.11-4.16-1.28-4.09-3.1,.1-2.62,2.71-5.76,5.69-7.33,0,.03,.02,.05,.02,.08,.37,1.63,.34,3.36,.12,5.01Zm12.62,5.52c-.44,2.29-3.91,5.04-4.51,1.39-.33-2.05,.07-4.43,1.29-6.16,.42-.6,.94-1.1,1.52-1.52,1.31,2.02,2.08,4.3,1.7,6.29Z"/><path class="cls-6" d="M421.59,132.5c-1.96,1-3.81,1.33-5.22-.65-.75-1.06-1.34-2.3-2.23-3.26-1.5-1.62-3.8-2.31-5.93-1.57-1.03,.36-1.9,1.01-2.91,1.4-1.5,.58-4.76,.15-5.46-1.57-.86-2.11-1.07-4.52-4.04-4.37-.99,.05-1.88,.87-2.55,1.51-.71,.69-1.99,2.28-3.06,.73-.48-.7-.41-1.43-.44-2.21-.09-2.13-1.6-3.45-3.84-2.99-1.16,.23-2.9,1.56-4.02,1.03-1.8-.85-3.04-2.45-4.49-3.77-2.15-1.95-4.32-1.8-6.57-.1-.49,.37,.14,1.08,.62,.72,4.38-3.31,6.16,2.18,9.64,3.82,.96,.45,1.62,.58,2.6,.13,1.7-.79,5.06-1.87,5.1,1.12,.02,1.5,.48,4.11,2.64,3.85,1.03-.13,1.71-.91,2.43-1.59,1.67-1.57,4.04-1.72,4.65,.97,.52,2.31,2.31,3.77,4.78,3.97,2.34,.18,3.79-1.69,5.99-1.91,4.13-.41,4.52,3.09,6.88,5.36,1.78,1.72,3.78,1.3,5.84,.25,.54-.28,.12-1.13-.42-.85Z"/></g></g><path class="cls-2" d="M201.92,43.27v-.15c0-15.63,12.26-27.89,28.81-27.89,9.5,0,16.01,2.83,21.76,7.74l-8.74,10.58c-3.91-3.3-7.51-5.06-12.95-5.06-7.66,0-13.72,6.44-13.72,14.64v.15c0,8.74,6.05,14.94,14.56,14.94,3.68,0,6.44-.77,8.58-2.22v-6.51h-10.5v-10.88h24.6v24.06c-5.75,4.83-13.41,8.35-23.3,8.35-16.78,0-29.12-11.42-29.12-27.74Zm60.69-26.97h25.36c8.28,0,13.87,2.15,17.47,5.75,3.14,3.14,4.75,7.36,4.75,12.49v.15c0,8.28-4.29,13.72-11.03,16.55l12.8,18.7h-17.09l-10.8-16.25h-6.59v16.25h-14.87V16.3Zm24.75,25.75c4.98,0,7.97-2.45,7.97-6.36v-.15c0-4.29-3.14-6.44-8.05-6.44h-9.81v12.95h9.88Zm47.9-26.13h14.33l22.84,54.02h-15.94l-3.83-9.66h-20.77l-3.83,9.66h-15.56l22.76-54.02Zm13.03,32.8l-5.98-15.17-6.05,15.17h12.03ZM0,129.4l8.28-9.88c5.44,4.29,11.26,6.44,17.39,6.44,4.06,0,6.21-1.3,6.21-3.68v-.15c0-2.3-1.76-3.37-9.12-5.21-11.34-2.61-20.23-5.75-20.23-16.78v-.15c0-10.04,7.89-17.17,20.77-17.17,9.2,0,16.25,2.45,22.07,7.13l-7.43,10.5c-4.9-3.6-10.19-5.29-15.02-5.29-3.6,0-5.36,1.38-5.36,3.45v.15c0,2.38,1.84,3.6,9.35,5.21,12.26,2.68,19.92,6.67,19.92,16.71v.15c0,10.96-8.66,17.47-21.69,17.47-9.58,0-18.39-2.99-25.13-8.89Zm54.03-45.67h14.87v20.08h19.08v-20.08h14.87v53.64h-14.87v-20.38h-19.08v20.38h-14.87v-53.64Zm56.55,26.97v-.15c0-15.4,12.41-27.89,28.97-27.89s28.81,12.41,28.81,27.74v.15c0,15.4-12.41,27.89-28.97,27.89s-28.81-12.41-28.81-27.74Zm42.53,0v-.15c0-7.82-5.52-14.48-13.72-14.48s-13.64,6.59-13.64,14.33v.15c0,7.66,5.59,14.48,13.79,14.48s13.56-6.59,13.56-14.33Zm16.25-26.97h15.71l9.35,31.03,10.35-31.19h12.8l10.34,31.19,9.35-31.03h15.4l-17.93,54.02h-12.95l-10.73-30.88-10.8,30.88h-12.95l-17.93-54.02Zm84.37,26.97v-.15c0-15.63,11.95-27.89,28.2-27.89,10.88,0,18.08,4.6,22.76,11.11l-11.19,8.66c-3.07-3.75-6.51-6.28-11.72-6.28-7.51,0-12.8,6.44-12.8,14.25v.15c0,8.05,5.29,14.33,12.8,14.33,5.59,0,8.81-2.61,12.11-6.51l11.19,7.97c-5.13,6.97-11.88,12.11-23.68,12.11-15.33,0-27.66-11.72-27.66-27.74Zm54.49,0v-.15c0-15.4,12.41-27.89,28.97-27.89s28.81,12.41,28.81,27.74v.15c0,15.4-12.41,27.89-28.97,27.89s-28.81-12.41-28.81-27.74Zm42.53,0v-.15c0-7.82-5.52-14.48-13.72-14.48s-13.64,6.59-13.64,14.33v.15c0,7.66,5.59,14.48,13.79,14.48s13.56-6.59,13.56-14.33Zm86.6-26.97h14.87v21.76l18.47-21.76h17.62l-20.31,22.99,21,30.65h-17.78l-13.56-19.92-5.44,5.98v13.95h-14.87v-53.64Zm56.32,0h14.87v53.64h-14.87v-53.64Zm24.68,0h13.87l22.07,28.35v-28.35h14.71v53.64h-12.95l-22.99-29.43v29.43h-14.71v-53.64Zm58.39,26.97v-.15c0-15.63,12.26-27.89,28.81-27.89,9.5,0,16.01,2.83,21.76,7.74l-8.74,10.58c-3.91-3.3-7.51-5.06-12.95-5.06-7.66,0-13.72,6.44-13.72,14.64v.15c0,8.74,6.05,14.94,14.56,14.94,3.68,0,6.44-.77,8.58-2.22v-6.51h-10.5v-10.88h24.6v24.06c-5.75,4.83-13.41,8.35-23.3,8.35-16.78,0-29.12-11.42-29.12-27.74ZM68.7,151.17h20.77c19.08,0,30.19,10.96,30.19,26.51v.15c0,15.56-11.26,26.97-30.5,26.97h-20.46v-53.64Zm14.87,13.1v27.36h6.05c8.97,0,14.87-4.9,14.87-13.56v-.15c0-8.66-5.9-13.64-14.87-13.64h-6.05Zm43.83-13.1h43.14v12.57h-28.43v8.2h25.75v11.72h-25.75v8.51h28.81v12.64h-43.53v-53.64Zm74.18,0h13.87l22.07,28.35v-28.35h14.71v53.64h-12.95l-22.99-29.43v29.43h-14.71v-53.64Zm78.7-.38h14.33l22.84,54.02h-15.94l-3.83-9.66h-20.77l-3.83,9.66h-15.56l22.76-54.02Zm13.03,32.8l-5.98-15.17-6.05,15.17h12.03Zm17.47-32.41h16.55l12.18,33.95,12.26-33.95h16.25l-21.76,54.02h-13.79l-21.69-54.02Zm62.84,0h14.87v53.64h-14.87v-53.64Zm24.67,0h20.77c19.08,0,30.19,10.96,30.19,26.51v.15c0,15.56-11.26,26.97-30.5,26.97h-20.46v-53.64Zm14.87,13.1v27.36h6.05c8.97,0,14.87-4.9,14.87-13.56v-.15c0-8.66-5.9-13.64-14.87-13.64h-6.05Zm58.55-13.49h14.33l22.84,54.02h-15.94l-3.83-9.66h-20.77l-3.83,9.66h-15.56l22.76-54.02Zm13.03,32.8l-5.98-15.17-6.05,15.17h12.03Zm29.35-32.41h20.77c19.08,0,30.19,10.96,30.19,26.51v.15c0,15.56-11.26,26.97-30.5,26.97h-20.46v-53.64Zm14.87,13.1v27.36h6.05c8.97,0,14.87-4.9,14.87-13.56v-.15c0-8.66-5.9-13.64-14.87-13.64h-6.05Z"/><path class="cls-3" d="M186.32,28.64c-5.6-6.82-14.92-9.06-27.69-6.66-6.61,1.24-13.08,3.21-19.44,5.46-.07-.03-.12-.06-.21-.08h0c-6.1-1.35-10.06-3.72-12.85-7.66-2.99-4.23-3.95-11.21,.15-15.81,1.55-1.73,3.67-2.42,5.98-1.94,2.85,.6,5.42,2.83,6.26,5.43,.44,1.35,.58,3.38-1.22,5.36-1.34,1.48-2.84,2.12-4.21,1.8-1.21-.28-2.19-1.31-2.61-2.75-.29-.99-.16-2.48,.5-3.03,.38-.32,.95-.3,1.7,.07,.76,.37,2.12-.19,2.44-.83,.17-.35,.11-.85-.44-1.12-2.28-1.12-4.51-.84-5.96,.76-1.62,1.77-1.74,4.65-.3,7.01,1.55,2.54,5.32,2.39,7.51,1.46,4.29-1.81,6.33-4.81,5.88-8.69-.42-3.66-2.68-6.17-6.36-7.08-4.78-1.17-10.68,.84-13.15,4.49-2.95,4.34-1.97,11.01,.44,15.08,2.64,4.46,6.52,7.29,12.38,9.01-2.92,1.09-5.82,2.21-8.68,3.33-.16-.07-.38-.11-.68-.03-1.98,.51-3.78,1.35-5.42,2.41-.59,.23-1.19,.47-1.78,.69-1.34,.51-2.73,1.07-4.16,1.63-9.99,3.96-22.42,8.89-32.88,6.48-4.71-1.08-8.21-4.83-9.38-10.03-.73-3.26,1.44-8.22,4.65-10.62,1.44-1.07,3.66-2.07,6.09-.72,2.32,1.29,3.89,4.15,3.58,6.51-.23,1.7-1.87,2.78-3.3,3.06-1.53,.3-2.83-.19-3.48-1.31-.4-.7-1.42-.69-2.13-.28-.68,.4-.91,1.06-.57,1.65,1.07,1.85,3.1,2.76,5.58,2.5,3.06-.32,5.85-2.33,6.65-4.77,.99-3.04-.17-6.29-3.03-8.49-2.55-1.96-6.59-2.98-9.87-.85-5.34,3.48-7.82,8.94-6.61,14.62,1.25,5.92,6.18,10.4,12.55,11.43,1.66,.27,3.33,.39,5.02,.39,9.29,0,19.03-3.67,27.94-7.26-3.23,3.94-5.3,8.87-6.11,13.46-.88,4.99,.48,9.71,3.73,12.94,2.49,2.48,5.87,3.8,9.56,3.8,.94,0,1.9-.09,2.88-.26,4.76-.85,9.52-4.24,11.59-8.24,1.47-2.85,1.56-5.83,.25-8.62-2.25-4.78-7.27-5.81-10.86-4.35-3.21,1.31-5.7,4.8-4.01,9.65,.19,.53,.56,.68,.77,.72,.43,.08,.92-.14,1.32-.59,.33-.38,.61-.99,.42-1.55-.58-1.67-.94-3.91,.67-5.1,1.71-1.26,5.21-.91,7.5,.77,1.41,1.03,2.27,2.43,2.46,4.04,.24,1.96-.48,4.1-1.98,5.88-4.24,5.03-11.79,6.18-17.55,2.69-4.78-2.9-5.18-7.63-4.67-11.09,.99-6.72,6.33-14.25,11.82-17.27,2.19-.85,4.42-1.74,6.69-2.66,13.11-5.28,26.68-10.74,40.25-9.97,5.73,.32,10.5,2.62,13.8,6.64,.3,.36,.8,.51,1.4,.41,.51-.08,1.17-.39,1.38-.95,.12-.33,.06-.69-.18-.98Z"/><path class="cls-3" d="M562.29,34.78c-1.25-5.92-6.18-10.4-12.55-11.43-10.75-1.73-22.44,2.63-32.97,6.87,3.23-3.94,5.3-8.87,6.11-13.47,.88-4.99-.48-9.71-3.73-12.94-3.13-3.11-7.66-4.4-12.44-3.54-4.76,.85-9.53,4.24-11.59,8.24-1.47,2.85-1.56,5.83-.25,8.62,2.25,4.78,7.27,5.81,10.86,4.35,3.21-1.31,5.7-4.8,4.01-9.65-.19-.53-.56-.68-.77-.72-.43-.08-.93,.14-1.32,.59-.33,.38-.61,.99-.41,1.55,.58,1.67,.94,3.91-.67,5.1-1.71,1.27-5.21,.91-7.5-.77-1.42-1.03-2.27-2.43-2.46-4.04-.24-1.96,.48-4.1,1.98-5.88,4.24-5.03,11.79-6.18,17.55-2.69,4.78,2.9,5.18,7.63,4.67,11.09-.99,6.72-6.33,14.25-11.82,17.27-2.19,.85-4.42,1.74-6.69,2.66-13.11,5.28-26.67,10.74-40.25,9.97-5.73-.32-10.5-2.62-13.8-6.64-.59-.71-1.81-.46-2.4,.03-.51,.42-.59,1.02-.2,1.49,5.6,6.82,14.92,9.06,27.69,6.66,6.61-1.24,13.08-3.21,19.44-5.46,.07,.03,.12,.06,.21,.08h0c6.1,1.35,10.06,3.71,12.84,7.66,2.99,4.23,3.95,11.21-.15,15.81-1.55,1.73-3.67,2.42-5.98,1.94-2.85-.6-5.42-2.83-6.26-5.43-.44-1.35-.58-3.38,1.22-5.36,1.34-1.48,2.84-2.12,4.21-1.8,1.21,.28,2.19,1.31,2.61,2.75,.29,.99,.16,2.48-.5,3.03-.38,.32-.96,.3-1.7-.07-.76-.38-2.12,.19-2.44,.83-.17,.35-.11,.85,.44,1.12,2.28,1.12,4.5,.84,5.96-.76,1.62-1.77,1.74-4.65,.3-7.01-1.55-2.54-5.33-2.39-7.51-1.46-4.29,1.81-6.32,4.81-5.88,8.69,.42,3.66,2.68,6.17,6.36,7.08,.92,.23,1.89,.33,2.86,.33,4.07,0,8.29-1.88,10.29-4.82,2.95-4.34,1.97-11.01-.44-15.08-2.64-4.46-6.52-7.29-12.38-9.01,2.92-1.09,5.82-2.21,8.69-3.33,.1,.04,.21,.08,.36,.08,.09,0,.2-.01,.32-.04,1.98-.51,3.78-1.35,5.43-2.41,.59-.23,1.19-.47,1.78-.69,1.34-.51,2.73-1.07,4.16-1.63,9.99-3.96,22.42-8.89,32.88-6.48,4.71,1.08,8.21,4.83,9.38,10.03,.73,3.26-1.44,8.22-4.65,10.62-1.44,1.07-3.66,2.07-6.09,.72-2.32-1.29-3.89-4.15-3.58-6.51,.23-1.7,1.87-2.78,3.3-3.06,1.53-.3,2.83,.19,3.48,1.31,.41,.7,1.42,.69,2.13,.28,.68-.39,.92-1.06,.57-1.65-1.07-1.85-3.1-2.76-5.58-2.5-3.06,.32-5.85,2.33-6.65,4.77-.99,3.04,.17,6.29,3.03,8.49,1.55,1.19,3.66,2.04,5.8,2.04,1.38,0,2.78-.35,4.06-1.19,5.34-3.48,7.82-8.94,6.61-14.62Z"/><path class="cls-5" d="M370.43,120.63c2.82,9.65,10.44,17.16,19.92,20.42,5.05,1.73,10.43,2.45,15.71,1.4,6.92-1.38,13.9-4.22,18.22-10,2.32-3.11,4.4-6.44,5.65-10.13,1.64-4.84,2.36-9.99,1.95-15.1-.73-9.18-5.29-15.69-12.62-20.93-.02-.11-.08-.22-.21-.3-4.7-3.12-9.56-5.47-15.29-5.42-.08-.05-.18-.08-.3-.07-9.93,.81-20.19,2.7-26.7,10.99-6.21,7.91-9.2,19.32-6.33,29.14Z"/><path class="cls-2" d="M392.36,40.51l21.51,27.53c.21-1.55,.72-3.43,1.65-4.58,.8-1,2.24-1.92,4.57-.69,3.39,1.79,2.91,4.89,2.02,7.17h6.19V16.3h-14.71v28.35l-22.07-28.35h-13.87v53.64h14.71v-29.43Z"/></g></g></svg>