<svg xmlns="http://www.w3.org/2000/svg" viewBox="0 0 241.71 241.71"><defs><style>.cls-1{fill:none;}.cls-2{fill:#fff;}</style></defs><g id="Capa_2" data-name="Capa 2"><g id="Capa_2-2" data-name="Capa 2"><circle class="cls-1" cx="120.86" cy="120.86" r="120.86"/><path class="cls-2" d="M120.12,117H86.73a1.55,1.55,0,0,1-1.55-1.55V103.1a1.55,1.55,0,0,1,1.54-1.55h33.4a1.55,1.55,0,0,1,1.54,1.55v12.33a1.55,1.55,0,0,1-1.54,1.55Z"/><path class="cls-2" d="M160.51,117H127.12a1.55,1.55,0,0,1-1.55-1.55V103.11a1.54,1.54,0,0,1,1.55-1.55h33.39a1.55,1.55,0,0,1,1.55,1.55v12.32a1.54,1.54,0,0,1-1.55,1.55Z"/><path class="cls-2" d="M120.12,166.45H88.28a1.54,1.54,0,0,1-1.55-1.55V123.2a1.57,1.57,0,0,1,1.55-1.55h31.85a1.55,1.55,0,0,1,1.54,1.55v41.71a1.54,1.54,0,0,1-1.54,1.54Z"/><path class="cls-2" d="M159,166.46H127.12a1.54,1.54,0,0,1-1.55-1.54v-41.7a1.54,1.54,0,0,1,1.55-1.55H159a1.54,1.54,0,0,1,1.55,1.55v41.7a1.56,1.56,0,0,1-.45,1.1A1.54,1.54,0,0,1,159,166.46Z"/><path class="cls-2" d="M103.38,96.2a54.06,54.06,0,0,0,6.21,5.33h27.25a52.28,52.28,0,0,0,6.21-5.33c7.45-7.45,13-17,8.51-21.45a5.77,5.77,0,0,0-4.23-1.62c-4.37,0-11,3.88-17.22,10.14a49.08,49.08,0,0,0-6.89,8.5,50,50,0,0,0-6.9-8.51C110.06,77,103.46,73.13,99.1,73.13a5.73,5.73,0,0,0-4.23,1.62c-1.55,1.54-2.78,4.6.16,10.42A45.87,45.87,0,0,0,103.38,96.2Zm31.32-8.35c5.08-5.08,9.71-7.66,11.94-8.15-.48,2-2.83,6.58-8.18,11.92-5,5-9.56,7.57-11.91,8.12C127.08,97.49,129.66,92.89,134.7,87.85Zm-23,0c5.34,5.34,7.69,10,8.17,11.92-2.23-.49-6.86-3.07-11.94-8.15a39.23,39.23,0,0,1-7.16-9.37,11.72,11.72,0,0,1-1-2.54C102.08,80.22,106.69,82.8,111.74,87.85Z"/><path class="cls-2" d="M130.3,101.56a8.48,8.48,0,1,0-14.19,0Z"/></g></g></svg>