<?xml version="1.0" encoding="UTF-8"?><svg xmlns="http://www.w3.org/2000/svg" viewBox="0 0 80.32 80.32"><defs><style>.d{fill:#ffcc02;}.e{fill:none;}</style></defs><g id="a"/><g id="b"><g id="c"><g><path class="d" d="M65.62,66.04c0-1.85-1.45-3.32-3.29-3.31-1.82,.01-3.25,1.45-3.26,3.27,0,1.83,1.4,3.28,3.21,3.3,1.87,.02,3.32-1.4,3.33-3.26m-31.14,3.26c1.8,0,3.27-1.44,3.3-3.24,.03-1.8-1.48-3.32-3.31-3.32-1.84,0-3.3,1.48-3.29,3.33,.01,1.8,1.47,3.24,3.29,3.24m28.42-30.12c-.43,3.25-.86,6.48-1.29,9.76,1.84,0,3.6,.02,5.36,0,.67,0,.97-.48,1.11-1.08,.3-1.33,.6-2.66,.91-3.99,.35-1.54,.71-3.08,1.08-4.68h-7.16Zm-24.5,0c.44,3.28,.87,6.51,1.3,9.73h6.45v-9.73h-7.76Zm12.28,0v9.78c2.06,0,4.07,.01,6.07-.02,.16,0,.42-.35,.45-.57,.26-1.74,.49-3.49,.71-5.23,.17-1.3,.33-2.6,.5-3.96h-7.73Zm-24.62-.04c0,.17-.02,.25,0,.32,.76,2.82,1.54,5.64,2.29,8.47,.2,.75,.69,1.03,1.39,1.03,1.17,0,2.35,0,3.52,0h1.88c.01-.21,.04-.31,.02-.4-.39-3-.78-6-1.2-9-.02-.16-.29-.4-.45-.4-2.46-.02-4.93-.02-7.45-.02m47.29-14.17c-.11-.03-.18-.06-.25-.06-2.62-.01-5.24-.01-7.85-.04-.51,0-.51,.31-.56,.66-.22,1.72-.45,3.44-.68,5.16-.17,1.3-.33,2.61-.51,3.99,2.49,0,4.91,0,7.32-.02,.12,0,.31-.21,.35-.36,.74-3.11,1.45-6.22,2.18-9.34m-22.68-.1v9.76h8.35c.43-3.26,.85-6.47,1.29-9.76h-9.64Zm-4.53,9.79v-9.86h-9.65c.44,3.32,.88,6.58,1.32,9.86h8.33Zm-24.04-9.93c.91,3.37,1.79,6.64,2.67,9.91h8.48c0-.17,.03-.29,.02-.4-.39-3.03-.79-6.05-1.21-9.08-.02-.16-.34-.39-.53-.4-.88-.05-1.76-.03-2.64-.03-2.22,0-4.45,0-6.78,0M2.54,8.29c.51-1.3,1.5-1.74,2.84-1.71,2.69,.05,5.39-.05,8.08,.08,2.42,.11,4.16,1.61,4.81,3.95,.83,2.99,1.65,5.98,2.43,8.98,.13,.51,.34,.65,.84,.65,13.32,.04,26.64,.1,39.97,.16,3.84,.02,7.69,.12,11.53,.05,3.05-.06,5.33,2.63,4.59,5.76-1.81,7.63-3.53,15.27-5.31,22.91-.62,2.66-2.8,4.28-5.66,4.28-13.86,0-27.72,0-41.58-.01-.27,0-.54,0-.81,0-1.41,.06-2.38,1.06-2.38,2.45s.97,2.39,2.4,2.43c.78,.02,1.57,0,2.35,0,13.86,0,27.72,0,41.58,0,1.72,0,2.85,1.14,2.47,2.65-.16,.65-.72,1.19-1.23,1.99,.82,1.89,.92,4.1-.08,6.3-.69,1.52-1.77,2.69-3.21,3.52-2.75,1.6-6.3,1.27-8.79-.8-2.23-1.86-3.66-5.28-2.09-9.14h-13.77c.87,2.09,.93,4.16,.07,6.22-.62,1.48-1.63,2.66-2.99,3.53-2.7,1.71-6.16,1.58-8.75-.34-2.84-2.11-3.66-5.19-2.46-9.48-.31,0-.59,.01-.87,0-1.27-.06-2.57,.03-3.8-.23-3.33-.7-5.56-3.78-5.34-7.18,.21-3.27,2.83-5.95,6.18-6.33,.12-.01,.24-.05,.43-.09-.52-1.93-1.02-3.83-1.54-5.73-2.77-10.28-5.54-20.55-8.31-30.83-.33-1.22-.39-1.27-1.65-1.27-2.33,0-4.65-.05-6.98,.02-1.36,.04-2.37-.37-2.99-1.61v-1.18Z"/><rect class="e" width="80.32" height="80.32"/></g></g></g></svg>