<svg xmlns="http://www.w3.org/2000/svg" viewBox="0 0 241.71 241.71"><defs><style>.cls-1{fill:none;}.cls-2{fill:#fff;}</style></defs><g id="Capa_2" data-name="Capa 2"><g id="Capa_2-2" data-name="Capa 2"><circle class="cls-1" cx="120.86" cy="120.86" r="120.86"/><path class="cls-2" d="M62.54,77.27v87.06H179.17V77.27Zm46.15,53.36a2.56,2.56,0,0,1-2.56,2.56H74.81a2.56,2.56,0,0,1-2.56-2.56V106.44a2.56,2.56,0,0,1,2.56-2.56h31.32a2.56,2.56,0,0,1,2.56,2.56ZM139,147.23h-16.7a2.26,2.26,0,0,1,0-4.51H139a2.26,2.26,0,1,1,0,4.51ZM164,137.7H122.28a2.26,2.26,0,0,1,0-4.51H164a2.26,2.26,0,0,1,0,4.51Zm0-10.24H122.28a2.26,2.26,0,0,1,0-4.51H164a2.26,2.26,0,0,1,0,4.51Zm-44-11.79a2.25,2.25,0,0,1,2.25-2.25H139a2.26,2.26,0,1,1,0,4.51h-16.7A2.26,2.26,0,0,1,120,115.67Zm44-7.28H122.28a2.26,2.26,0,0,1,0-4.51H164a2.26,2.26,0,0,1,0,4.51Zm12.18-13.76H65.49V82.76H176.22Z"/></g></g></svg>