<svg xmlns="http://www.w3.org/2000/svg" viewBox="0 0 241.71 241.71"><defs><style>.cls-1{fill:none;}.cls-2{fill:#fff;}</style></defs><g id="Capa_2" data-name="Capa 2"><g id="Capa_2-2" data-name="Capa 2"><circle class="cls-1" cx="120.86" cy="120.86" r="120.86"/><path class="cls-2" d="M184.06,87.87c0-.14,0-.29,0-.43s0-.16-.05-.24,0-.08,0-.12l-.1-.27c0-.08,0-.15-.08-.22a3.38,3.38,0,0,0-.27-.5l0,0a3.56,3.56,0,0,0-.39-.48l-.15-.13a2.16,2.16,0,0,0-.33-.27,1.37,1.37,0,0,0-.2-.13l-.34-.19-.23-.1a2.64,2.64,0,0,0-.4-.12l-.21-.06a3.49,3.49,0,0,0-.65-.06H61.14a3.49,3.49,0,0,0-.65.06l-.21.06a2.64,2.64,0,0,0-.4.12l-.23.1-.34.19a1.37,1.37,0,0,0-.2.13,2.16,2.16,0,0,0-.33.27l-.15.13a4.54,4.54,0,0,0-.39.48l0,0a3.38,3.38,0,0,0-.27.5c0,.07,0,.14-.08.22l-.1.27s0,.08,0,.12,0,.16-.05.24,0,.29,0,.43,0,.08,0,.13v69.91a3.5,3.5,0,0,0,3.5,3.5H180.57a3.5,3.5,0,0,0,3.5-3.5V88S184.06,87.91,184.06,87.87Zm-16.4,3.63-46.8,27.4L74.05,91.5Zm-103,62.91V94.1L119.09,126a3.49,3.49,0,0,0,3.53,0L177.07,94.1v60.31Z"/></g></g></svg>