<?xml version="1.0" encoding="UTF-8"?><svg xmlns="http://www.w3.org/2000/svg" viewBox="0 0 80.32 80.32"><defs><style>.d{fill:#fff;}.e{fill:#ffcc02;}.f{fill:none;}</style></defs><g id="a"/><g id="b"><g id="c"><g><rect class="d" x="24.33" y="36.69" width="31.66" height="6.94"/><g><path class="e" d="M20.21,56.14c-1.18-1.01-2.29-1.96-3.45-2.95v5.92c1.18-1.02,2.29-1.97,3.45-2.97m7.95-2.98c-1.21,1.04-2.32,2-3.47,2.99,1.15,.99,2.27,1.95,3.47,2.98v-5.97Zm-.97,6.63c-1.18-1.02-2.27-1.95-3.34-2.87-1.17,.86-1.48,.86-2.83,.02-1.06,.92-2.14,1.84-3.31,2.85h9.48Zm-.02-7.26h-9.43c1.48,1.28,2.88,2.48,4.27,3.69,.3,.26,.58,.26,.88,0,1.4-1.21,2.79-2.41,4.28-3.69m-8.23-18.9c0,1.95,1.56,3.53,3.5,3.54,1.94,0,3.52-1.57,3.52-3.52,0-1.95-1.55-3.52-3.5-3.53-1.95,0-3.52,1.56-3.52,3.51m-2.71,12.61h12.48c0-1.36,.03-2.68,0-4-.04-1.57-1.3-3.03-2.85-3.34-.19-.04-.48,.06-.61,.2-1.63,1.81-3.97,1.8-5.59,0-.12-.14-.42-.23-.61-.19-1.38,.28-2.67,1.51-2.79,2.91-.13,1.45-.03,2.92-.03,4.42m16.23-4.58h31.65v-6.95h-31.65v6.95Zm-.01,17.96h31.66v-6.94h-31.66v6.94Zm-24.2,8.17V20.37c.23,0,.45,.03,.68,.03,20.82,0,41.65,0,62.47,0,.23,0,.45-.02,.68-.03v47.41c-.82,2.58-2.65,3.42-5.28,3.41-17.9-.06-35.81-.03-53.71-.03-.27,0-.54,0-.81,0-1.72-.07-3.19-1.14-3.79-2.76-.08-.21-.17-.41-.25-.62"/><path class="e" d="M71.85,11.97c-.59-1.66-2.05-2.75-3.8-2.82-.27-.01-.54,0-.81,0-17.9,0-35.81,.03-53.71-.03-2.63,0-4.46,.83-5.28,3.41v6.84c.23,0,.46-.03,.68-.03,20.82,0,41.65,0,62.47,0,.23,0,.45,.02,.68,.03v-6.84c-.08-.19-.16-.37-.23-.56ZM14,15.77c-.83,0-1.54-.72-1.53-1.56,.01-.83,.68-1.49,1.52-1.49,.86,0,1.53,.67,1.51,1.55-.01,.83-.68,1.5-1.5,1.51Zm5.95,0c-.83,.03-1.55-.68-1.56-1.53,0-.82,.66-1.5,1.49-1.52,.85-.02,1.57,.68,1.57,1.52s-.69,1.51-1.5,1.54Zm5.89,0c-.83,0-1.53-.72-1.52-1.56,.01-.83,.68-1.49,1.52-1.49,.87,0,1.52,.67,1.51,1.55-.01,.83-.68,1.5-1.51,1.5Z"/></g><rect class="f" width="80.32" height="80.32"/></g></g></g></svg>