<svg xmlns="http://www.w3.org/2000/svg" viewBox="0 0 241.71 241.71"><defs><style>.cls-1{fill:none;}.cls-2{fill:#fff;}</style></defs><g id="Capa_2" data-name="Capa 2"><g id="Capa_2-2" data-name="Capa 2"><circle class="cls-1" cx="120.86" cy="120.86" r="120.86"/><path class="cls-2" d="M97.53,178.22a13.91,13.91,0,1,1,13.9-13.9A13.92,13.92,0,0,1,97.53,178.22Z"/><path class="cls-2" d="M160,178.22a13.91,13.91,0,1,1,13.91-13.9A13.92,13.92,0,0,1,160,178.22Z"/><path class="cls-2" d="M160,166.46H100.62a5.24,5.24,0,0,1-5-6.84l8-19.58a2.14,2.14,0,0,1,4,1.62l-7.91,19.43a1,1,0,0,0,1,1.08H160a2.15,2.15,0,1,1,0,4.29Z"/><path class="cls-2" d="M178.25,88.51A5.25,5.25,0,0,0,174,86.37l-89.36,0-4.2-9.62a2.13,2.13,0,0,0-2-1.28H58.65a2.14,2.14,0,0,0,0,4.28H77.11l26.2,60.05a5.24,5.24,0,0,0,4.81,3.17h51.34a5.21,5.21,0,0,0,5-3.67L179,93.19A5.25,5.25,0,0,0,178.25,88.51Zm-23.16,42.08H111.25a2.15,2.15,0,0,1,0-4.29h43.84a2.15,2.15,0,0,1,0,4.29Zm3.74-13.54H107.51a2.15,2.15,0,0,1,0-4.29h51.32a2.15,2.15,0,0,1,0,4.29Zm3.07-13.54H104.44a2.15,2.15,0,1,1,0-4.29H161.9a2.15,2.15,0,0,1,0,4.29Z"/><path class="cls-2" d="M62.69,77.79a3.38,3.38,0,1,1-3.38-3.38A3.38,3.38,0,0,1,62.69,77.79Z"/></g></g></svg>