<?xml version="1.0" encoding="UTF-8"?><svg id="Capa_2" xmlns="http://www.w3.org/2000/svg" viewBox="0 0 80.32 80.32"><defs><style>.cls-1{fill:#fff;}.cls-2{fill:#ffd100;}.cls-3{fill:none;}</style></defs><g id="Capa_3"><g><g><path class="cls-2" d="M10.87,19.26c.03,13.94,.03,27.88,0,41.81,0,.76,.22,.88,.91,.88,17.87-.02,35.74-.02,53.62,0,.76,0,.93-.19,.93-.94-.02-13.91-.02-27.82,0-41.73,0-.7-.13-.92-.89-.92-4.83,.04-15.88,.03-21.86,.02-.18,0-.37,0-.55,0-10.42,0-20.84,0-31.26-.02-.72,0-.91,.15-.9,.89Z"/><path class="cls-2" d="M68.9,40.17c0-6.98,.01-13.97-.02-20.95,0-.7,.18-.86,.86-.85,3.21,.04,6.43,.03,9.64,0,.62,0,.96,.1,.82,.8,0,.03,0,.06,0,.08,.17,1.02-.1,1.6-1.21,2.05-2.15,.87-3.42,3.15-3.23,5.41,.21,2.45,1.49,4.19,3.81,5.04,.54,.2,.62,.44,.65,.93,.09,1.19-.09,1.95-1.44,2.53-2.17,.94-3.15,2.92-3.01,5.27,.14,2.38,1.4,4.1,3.65,4.97,.63,.24,.9,.53,.78,1.18-.01,.08-.01,.17,0,.25,.16,.98-.11,1.52-1.16,1.94-2.16,.86-3.41,3.1-3.3,5.37,.11,2.31,1.61,4.34,3.85,5.1,.53,.18,.63,.44,.62,.95-.03,1.69,0,1.69-1.66,1.69-2.91,0-5.82-.02-8.73,.02-.71,0-.96-.12-.96-.91,.04-6.96,.02-13.91,.02-20.87Z"/><path class="cls-2" d="M8.35,40.24c0,6.95-.01,13.91,.02,20.86,0,.71-.19,.86-.87,.85-2.22-.05-4.43-.05-6.65,0-.64,.01-.85-.18-.74-.78,0-.05,0-.11,0-.17-.18-1.01,.15-1.54,1.2-1.97,2.14-.87,3.38-3.14,3.26-5.41-.13-2.28-1.62-4.31-3.81-5.05-.53-.18-.72-.41-.65-.93,.02-.11,.02-.22,0-.33-.16-1.02,.09-1.62,1.21-2.07,2.15-.86,3.38-3.13,3.25-5.41-.13-2.29-1.62-4.28-3.82-5.03-.51-.18-.61-.42-.65-.93-.1-1.22,.15-1.95,1.45-2.53,2.16-.96,3.13-2.93,3.01-5.28-.13-2.36-1.4-4.06-3.57-4.95-.69-.28-.9-.55-.87-1.26,.06-1.46,.02-1.46,1.48-1.46,2,0,3.99,.03,5.98-.02,.68-.02,.81,.21,.81,.84-.02,7.01-.01,14.02-.01,21.03Z"/><g><path class="cls-1" d="M13.86,40.01l3.78-3.74c1.57,1.57,3.13,2.46,5.13,2.46,1.72,0,2.73-.86,2.73-2.18v-.06c0-1.38-1.2-2.21-3.5-2.21h-2.52l-.83-3.1,4.91-4.45H15.37v-4.82h15.5v4.24l-5.13,4.42c3.07,.68,5.56,2.36,5.56,6.05v.06c0,4.33-3.53,7.15-8.29,7.15-4.18,0-7.03-1.47-9.15-3.81Z"/><path class="cls-1" d="M31.61,40.41l3.41-3.99c1.72,1.47,3.38,2.33,5.22,2.33,1.96,0,3.13-.95,3.13-2.52v-.06c0-1.57-1.29-2.49-3.16-2.49-1.32,0-2.43,.46-3.44,1.07l-3.53-2,.61-10.87h14.37v4.91h-9.67l-.18,3.25c.98-.46,1.99-.77,3.44-.77,3.84,0,7.37,2.15,7.37,6.81v.06c0,4.76-3.65,7.64-8.87,7.64-3.81,0-6.45-1.32-8.69-3.41Z"/></g><path class="cls-1" d="M60.31,44.76c-.86-1.14-1.96-1.9-3.56-1.9s-2.7,.8-3.35,2.12h4.82v3.13h-5.49c-.03,.28-.03,.52-.03,.8v.03c0,.25,0,.49,.03,.71h5.49v3.1h-4.85c.61,1.44,1.81,2.27,3.53,2.27,1.57,0,2.61-.8,3.62-2.03l3.65,3.44c-1.75,2.3-4.05,3.68-7.49,3.68-4.97,0-8.26-2.98-9.3-7.28h-2.46v-3.19h2.06v-.71c0-.28,0-.52,.03-.86h-2.09v-3.16h2.58c1.07-4.05,4.33-7.15,9.24-7.15,3.31,0,5.74,1.38,7.37,3.47l-3.81,3.53Z"/></g><rect class="cls-3" width="80.32" height="80.32"/></g></g></svg>