<?xml version="1.0" encoding="UTF-8"?><svg xmlns="http://www.w3.org/2000/svg" viewBox="0 0 116.5 106.1"><g id="a"/><g id="b"><g id="c"><path d="M112.21,67.67h-.01c-1-.47-2.15-.14-2.61,.85-.45,.99,.04,2.05,1.03,2.51h.01c1,.46,2.15,.14,2.6-.85,.46-.99-.04-2.06-1.03-2.51m1.85,2.91c-.71,1.53-2.39,2.05-3.83,1.39h-.02c-1.44-.67-2.15-2.31-1.44-3.84,.71-1.53,2.39-2.05,3.83-1.39h.02c1.44,.67,2.15,2.31,1.44,3.84m-6.9,6.53h-.01c-.91-.64-2-.48-2.66,.46l-.62,.89,3.15,2.19,.62-.89c.66-.95,.43-2.02-.47-2.65m1.21,3.16l-1.17,1.68-4.63-3.22,1.17-1.68c.99-1.42,2.66-1.7,3.97-.8h.01c1.3,.91,1.64,2.59,.65,4.01m-9.64,2.97l2.77,2.74-4.84-.65-.63,.64,4.01,3.97,.67-.68-2.85-2.82,4.98,.67,.57-.58-4.01-3.96-.67,.68Zm-6.07,11.47l-.88-1.23,2.24-1.61-.52-.72-2.24,1.61-.85-1.19,2.52-1.81-.52-.72-3.3,2.38,3.29,4.58,3.34-2.4-.52-.72-2.55,1.84Zm-8.8-.24l2.63,4.99,.85-.45-2.63-4.99-.85,.45Zm-5.33,7.45l-1.62-4.45-.91,.33,1.93,5.3,3.62-1.32-.31-.85-2.71,.99Zm-7.53-.79v-.02c-.13-.65-.65-.9-1.36-.77l-1.1,.21,.38,1.99,1.1-.21c.72-.14,1.09-.63,.98-1.21m.96-.21c.24,1.24-.61,2.08-1.8,2.3l-1.07,.2,.34,1.78-.95,.18-1.05-5.54,2.13-.4c1.26-.24,2.19,.35,2.4,1.46v.02Zm-10.48-.53l-1.63,2.69-1.71-2.64-1.03,.02,.09,5.64,.95-.02-.07-4.03,1.76,2.61h.03l1.69-2.69,.07,4.04,.97-.02-.09-5.64-1.03,.02Zm-10.71,2.65c-.18,1.02-.79,1.45-1.64,1.31-.85-.15-1.27-.8-1.08-1.83l.56-3.16-.95-.17-.56,3.2c-.29,1.61,.46,2.6,1.87,2.85,1.41,.25,2.47-.42,2.77-2.08l.56-3.15-.95-.17-.56,3.19Zm-9.46-5.84c-1.56-.57-3.11,.25-3.67,1.76v.02c-.56,1.52,.11,3.13,1.62,3.68,.96,.36,1.69,.21,2.43-.17l-.36-.82c-.6,.26-1.1,.38-1.73,.14-.99-.36-1.39-1.47-1.01-2.51v-.02c.39-1.04,1.41-1.6,2.39-1.24,.59,.22,.93,.64,1.2,1.19l.83-.47c-.32-.67-.77-1.22-1.72-1.57m-13.61-7.23c-.88-.64-1.91-.57-2.48,.21h-.01c-.61,.85-.29,1.53,.49,2.45,.68,.8,.73,1.1,.49,1.43h-.01c-.25,.36-.72,.36-1.2,.01-.55-.4-.82-.93-.97-1.61l-.89,.23c.18,.88,.64,1.58,1.32,2.08,.93,.68,1.95,.65,2.58-.2h0c.55-.77,.31-1.47-.45-2.39-.7-.83-.78-1.13-.53-1.48h.01c.22-.31,.66-.36,1.12-.03,.4,.3,.69,.75,.86,1.35l.86-.3c-.18-.7-.55-1.28-1.19-1.75m-7.63-5.46c-.76-.78-1.93-.7-2.72,.06h-.01c-.78,.78-.89,1.97-.14,2.75,.76,.78,1.93,.7,2.72-.06h.01c.79-.78,.9-1.97,.14-2.75m.66-.62c1.18,1.21,1.06,2.97-.08,4.07h-.01c-1.14,1.12-2.92,1.19-4.1-.02-1.18-1.21-1.06-2.97,.08-4.07h.01c1.14-1.12,2.92-1.19,4.1,.02m-8.79-4.29l1.58-4.62-.5-.74-4.67,3.16,.53,.79,3.32-2.25-1.63,4.75,.45,.67,4.67-3.16-.53-.79-3.23,2.18Zm3.75-3.6c-.15-.23-.15-.77-.39-1.13-.27-.4-.7-.39-1.31-.17l.16,.53c.29-.05,.44-.05,.57,.14,.15,.23,.14,.77,.39,1.13,.26,.39,.7,.38,1.31,.17l-.17-.53c-.28,.05-.43,.05-.56-.14m-7.12-7.83l-2.44,.07,.78,1.72,1.67-1.79Zm1.27-.06l-4.18,4.53-.42-.93,1.01-1.07-1.06-2.37-1.47,.04-.4-.9,6.17-.13,.37,.82Zm-4.39-20.14c0,.15,.11,.28,.25,.29h2.37c.15,0,.27-.13,.27-.29,0-.03,0-.06-.01-.09l-1.17-3.64c-.04-.1-.14-.18-.25-.18s-.21,.08-.24,.19l-1.2,3.65s-.01,.05-.01,.08m-1.16,7.93H.67c-.37,0-.67-.29-.67-.66,0-.27,.17-.5,.41-.6,1.23-.71,1.76-2.77,2.26-4.19l4.27-12.34c.12-.4,.47-.69,.88-.69s.77,.3,.89,.7l4.46,13.39c.17,.49,.42,1.26,.71,1.88,.26,.57,.84,.97,1.53,.97,.76,0,1.4-.5,1.6-1.18,.06-.52,.05-1.15,.05-1.87v-9.33c0-1.68,.04-2.83-.8-3.32-.24-.1-.41-.33-.41-.61,0-.36,.3-.66,.68-.66h4.63c.37,0,.68,.29,.68,.66,0,.27-.17,.51-.41,.61-.83,.49-.79,1.64-.79,3.32,0,0,0,9.88,0,10.12,.11,1.58,.58,2.52,2.64,2.52s3.19-.62,3.83-2.51c.07-.29,.34-.51,.66-.51,.37,0,.67,.29,.67,.66v2.62c0,.58-.42,1.03-.93,1.03H13.39c-1.73-.04-3.15-1.26-3.43-2.85-.1-.46-.86-2.86-.86-2.86H4.67s-.84,2.4-.84,3.16,.29,1.08,.7,1.28c.25,.1,.42,.33,.42,.61,0,.36-.3,.66-.67,.66m26.25-1.27c-.24,.1-.41,.33-.41,.61,0,.36,.3,.66,.68,.66h4.63c.37,0,.68-.3,.68-.66,0-.27-.17-.51-.41-.61-.83-.49-.8-1.64-.8-3.32t0-9.33c0-1.68-.04-2.83,.8-3.32,.24-.1,.41-.33,.41-.61,0-.36-.3-.66-.68-.66h-4.63c-.37,0-.68,.29-.68,.66,0,.27,.17,.51,.41,.61,.83,.49,.8,1.64,.8,3.32v9.33c0,1.68,.04,2.83-.8,3.32m7.69,0c-.24,.1-.41,.33-.41,.61,0,.36,.3,.66,.68,.66h2.85c.37,0,.68-.3,.68-.66,0-.27-.17-.51-.41-.61-.62-.36-.76-1.08-.79-2.11v-9.1l3.96,11.53c.15,.54,.65,.94,1.25,.94s1.14-.43,1.26-1l3.57-11.11v7.53c0,1.68,.04,2.83-.8,3.32-.24,.1-.41,.33-.41,.61,0,.36,.3,.66,.68,.66h4.63c.37,0,.68-.3,.68-.66,0-.27-.17-.51-.41-.61-.83-.49-.8-1.64-.8-3.32t0-9.33c0-1.68-.04-2.83,.8-3.32,.24-.1,.41-.33,.41-.61,0-.36-.3-.66-.71-.64h-3.32c-.37,0-.68,.25-.78,.62l-3.99,12.37-4.32-12.39c-.09-.36-.4-.63-.77-.63-.02,0-3.26,0-3.26,0-.37,0-.68,.29-.68,.66,0,.27,.17,.51,.41,.61,.83,.49,.8,1.64,.8,3.32v9.33c0,1.68,.04,2.83-.8,3.32m19.52,0c-.24,.1-.41,.33-.41,.61,0,.36,.3,.66,.68,.66h10.97c.51,0,.92-.45,.92-1.03v-2.62c0-.36-.3-.66-.67-.66-.32,0-.59,.22-.66,.51-.64,1.89-1.72,2.5-3.83,2.5s-2.53-.94-2.64-2.52c0-.24,0-4.83,0-4.83h.91c.8,.06,1.49,.5,1.88,1.13,.09,.24,.34,.42,.62,.42,.37,0,.67-.29,.67-.66v-3.54c0-.36-.3-.65-.67-.65-.26,0-.49,.15-.6,.37-.38,.66-1.08,1.12-1.9,1.18h-.91s0-4.07,0-4.31c.1-1.49,.53-2.41,2.31-2.51,1.6,.07,2.69,.67,3.26,2.22,.07,.29,.34,.5,.65,.5,.37,0,.67-.29,.67-.66v-2.36c0-.55-.41-1-.95-1h-10.03c-.37,0-.68,.29-.68,.66,0,.27,.17,.51,.41,.61,.83,.49,.79,1.64,.79,3.32v9.33c0,1.68,.04,2.83-.79,3.32m51.72-6.65s0-.06,0-.09l-1.18-3.64c-.04-.1-.13-.18-.25-.18s-.21,.08-.24,.19l-1.2,3.65s-.01,.05-.01,.08c0,.15,.11,.28,.25,.29h2.37c.15,0,.27-.13,.27-.29m-29.01-5.42c0-2.54-.88-3.88-3.07-3.88-.26,0-1.12-.03-1.19,.31v6.89h2.24c.71-.06,1.31-.47,1.62-1.06,.26-.57,.4-1.31,.4-2.26m36.04,12.69c0,.36-.3,.66-.67,.66-.02,0-1.3,0-1.3,0-1.73-.02-3.15-1.24-3.43-2.84-.1-.45-.86-2.86-.86-2.86h-4.43s-.84,2.4-.84,3.16,.29,1.08,.7,1.28c.25,.1,.42,.33,.42,.61,0,.36-.3,.66-.68,.66h-5.34c-2.2,0-4.1-1.23-5.03-3.01-.25-.49-3.61-5.71-3.61-5.71-.13-.19-.23-.41-.28-.64v4.76c0,1.68-.04,2.83,.8,3.32,.24,.1,.41,.33,.41,.61,0,.36-.3,.66-.68,.66h-6.12c-2.13,0-3.98-1.15-4.94-2.85l-1.63-2.77c-.77-1.29-1.76-2.68-2.42-2.63-.01,0-.03,0-.04,0h-.04c-.13,.02-.24,.12-.27,.26,0,0,0,3.51,0,3.56,0,1.59,0,2.68,.8,3.15,.24,.1,.41,.33,.41,.61,0,.36-.3,.66-.68,.66h-4.63c-.37,0-.68-.3-.68-.66,0-.27,.17-.51,.41-.61,.83-.49,.8-1.64,.8-3.32v-9.33c0-1.68,.04-2.83-.8-3.32-.24-.1-.41-.33-.41-.61,0-.36,.3-.66,.68-.66h6.06c1.12,.06,2.81,.14,3.83,.67,1.51,.73,2.3,2.24,2.3,4.19,0,2.49-1.74,4.05-3.65,4.42,0,0,4.18,6.51,4.74,7.23,.07,.09,.36,.41,.42,.46,.17,.13,.38,.2,.61,.2,.35,0,.66-.17,.84-.44,.33-.61,.31-1.57,.31-2.81v-9.33c0-1.68,.04-2.83-.8-3.32-.24-.1-.41-.33-.41-.61,0-.36,.3-.66,.68-.66h4.63c.37,0,.68,.29,.68,.66,0,.27-.17,.51-.41,.61-.83,.49-.8,1.64-.8,3.32v3.62c.07-.3,.21-.57,.4-.8l4.04-5.21c.09-.1,.14-.23,.14-.37,0-.2-.1-.38-.26-.48-.24-.15-.51-.22-.77-.26-.26-.02-.46-.25-.46-.54s.22-.54,.5-.54h4.08c.39,.01,.67,.3,.67,.66,0,.27-.17,.51-.41,.61-.36,.13-.67,.35-1.07,.78-.17,.18-.33,.37-.48,.57l-3.62,4.63s5.62,8.66,5.86,9.01c.31,.44,.81,.72,1.37,.72s1.04-.26,1.34-.67c.61-.94,.97-2.24,1.32-3.23l4.27-12.34c.12-.4,.47-.69,.88-.69s.77,.3,.89,.7l4.46,13.39c.26,.75,.72,2.15,1.19,2.71,.17,.18,.37,.31,.59,.41,.25,.09,.43,.33,.43,.61m-21.04,5.52l.18-.65h-2.78l-.11,.37c-1.57,5.36-4.53,10.28-8.55,14.21-6.47,6.34-15.28,9.83-24.82,9.83-7.57,0-14.76-2.36-20.79-6.81-5.83-4.32-10.19-10.43-12.25-17.23l-.11-.37h-2.79l.19,.65c4.49,15.53,19.2,26.38,35.75,26.38,8.48,0,16.41-2.57,22.96-7.42,6.44-4.78,10.98-11.33,13.11-18.96M57.27,27.77h2.12c5.78,0,11.36,2.06,15.71,5.78l.15,.13h3.84l-.88-.87c-4.5-4.42-10.42-7.09-16.74-7.58L73.64,0h-20.77V2.61h16.54l-12.14,25.16Zm16.15-6.34c6.15,1.31,11.33,4.73,14.99,9.88,.47,.67,.93,1.38,1.36,2.12l.15,.26h3.04l-.41-.75c-.6-1.11-1.25-2.16-1.93-3.11-3.73-5.24-8.92-8.88-15.04-10.56l7.49-16.65h17.75V0h-19.51l-9.48,21.09,1.6,.34ZM34.6,60.12h2.91l.14,.3c3.84,8.35,12.38,13.75,21.74,13.75s17.9-5.4,21.74-13.75l.14-.3h2.91l-.3,.71c-4.13,9.69-13.74,15.96-24.49,15.96s-20.36-6.26-24.49-15.96l-.3-.71Z"/></g></g></svg>