<svg height="28" xmlns="http://www.w3.org/2000/svg" viewBox="0 0 176.36 28.66"><defs><style>.cls-1{fill:#fcc01f;stroke:#000;stroke-miterlimit:10;stroke-width:0.75px;}</style></defs><g id="Capa_2" data-name="Capa 2"><g id="Capa_1-2" data-name="Capa 1"><path class="cls-1" d="M176,27.3a1,1,0,0,1-1,1h-2A5.25,5.25,0,0,1,167.84,24c-.16-.68-1.3-4.31-1.3-4.31h-6.68a27,27,0,0,0-1.26,4.76,1.9,1.9,0,0,0,1.06,1.93,1,1,0,0,1-.38,1.91h-8.05a8.54,8.54,0,0,1-7.58-4.54c-.37-.74-5.44-8.6-5.44-8.6a3.36,3.36,0,0,1-.42-1v7.18c0,2.53-.06,4.26,1.2,5a1,1,0,0,1,.62.92,1,1,0,0,1-1,1h-9.23a8.51,8.51,0,0,1-7.44-4.3l-2.47-4.17c-1.15-1.94-2.66-4.05-3.64-4h-.12a.49.49,0,0,0-.41.39s0,5.3,0,5.36c0,2.4,0,4,1.2,4.75a1,1,0,0,1,.62.92,1,1,0,0,1-1,1h-7a1,1,0,0,1-1-1,1,1,0,0,1,.62-.92c1.26-.73,1.2-2.46,1.2-5V7.29c0-2.53.06-4.27-1.2-5a1,1,0,0,1-.62-.92,1,1,0,0,1,1-1h9.14c1.68.08,4.23.21,5.78,1,2.27,1.1,3.46,3.37,3.46,6.32a6.61,6.61,0,0,1-5.5,6.65s6.31,9.82,7.15,10.91c.1.13.54.61.63.69a1.57,1.57,0,0,0,.92.31,1.53,1.53,0,0,0,1.27-.67c.5-.92.47-2.36.47-4.24V7.29c0-2.53.06-4.27-1.2-5a1,1,0,0,1-.62-.92,1,1,0,0,1,1-1h7a1,1,0,0,1,1,1,1,1,0,0,1-.62.92c-1.26.73-1.2,2.47-1.2,5v5.45a3.2,3.2,0,0,1,.6-1.21l6.09-7.85a.87.87,0,0,0-.18-1.29A3.19,3.19,0,0,0,143.14,2a.79.79,0,0,1-.7-.81.78.78,0,0,1,.75-.81h6.15a1,1,0,0,1,1,1,1,1,0,0,1-.62.92,4,4,0,0,0-1.61,1.17,7.69,7.69,0,0,0-.73.86l-5.45,7s8.46,13.06,8.83,13.58a2.51,2.51,0,0,0,4.08.07,23.38,23.38,0,0,0,2-4.87l6.44-18.6a1.37,1.37,0,0,1,2.67,0l6.73,20.18a16.28,16.28,0,0,0,1.78,4.09,2.86,2.86,0,0,0,.89.62A1,1,0,0,1,176,27.3ZM121.66,8.17c0-3.83-1.33-5.85-4.62-5.85-.39,0-1.69,0-1.79.46V13.17h3.38a3,3,0,0,0,2.43-1.59A8.11,8.11,0,0,0,121.66,8.17Zm43.73,8.17a.59.59,0,0,0,0-.14l-1.77-5.49a.4.4,0,0,0-.37-.26.39.39,0,0,0-.37.28l-1.81,5.5a.36.36,0,0,0,0,.11.44.44,0,0,0,.38.44H165A.43.43,0,0,0,165.39,16.34Zm-78,10a1,1,0,0,0,.4,1.91h16.54a1.47,1.47,0,0,0,1.39-1.55V22.76a1,1,0,0,0-2-.21c-1,2.85-2.59,3.78-5.78,3.78s-3.81-1.42-4-3.8V15.25h1.38A3.62,3.62,0,0,1,98.21,17a1,1,0,0,0,.94.63,1,1,0,0,0,1-1V11.26a1,1,0,0,0-1-1,1,1,0,0,0-.91.55,3.59,3.59,0,0,1-2.86,1.79H94V6.12c.16-2.25.8-3.64,3.48-3.79,2.41.12,4.06,1,4.91,3.36a1,1,0,0,0,2-.24V1.89A1.45,1.45,0,0,0,103,.38H87.83a1,1,0,0,0-1,1,1,1,0,0,0,.62.92c1.26.73,1.2,2.47,1.2,5V21.36C88.63,23.89,88.69,25.62,87.43,26.35ZM58,26.35a1,1,0,0,0-.62.92,1,1,0,0,0,1,1h4.3a1,1,0,0,0,1-1,1,1,0,0,0-.62-.92c-.93-.54-1.14-1.63-1.19-3.18V9.45l6,17.39a2,2,0,0,0,3.79-.09L77.05,10V21.36c0,2.53,0,4.26-1.2,5a1,1,0,0,0,.4,1.91h7a1,1,0,0,0,1-1,1,1,0,0,0-.62-.92c-1.26-.73-1.2-2.46-1.2-5V7.29c0-2.53-.06-4.27,1.2-5a1,1,0,0,0,.62-.92,1,1,0,0,0-1.07-1h-5A1.2,1.2,0,0,0,77,1.35L71,20,64.49,1.33A1.22,1.22,0,0,0,63.33.38H58.41a1,1,0,0,0-1,1,1,1,0,0,0,.62.92c1.26.73,1.2,2.47,1.2,5V21.36C59.2,23.89,59.26,25.62,58,26.35Zm-11.59,0a1,1,0,0,0,.4,1.91h7a1,1,0,0,0,.4-1.91c-1.25-.73-1.2-2.46-1.2-5,0,0,0,0,0-14.07,0-2.53-.06-4.27,1.19-5a1,1,0,0,0,.62-.92,1,1,0,0,0-1-1h-7a1,1,0,0,0-1,1,1,1,0,0,0,.62.92c1.25.73,1.2,2.47,1.2,5V21.36C47.61,23.89,47.66,25.62,46.41,26.35ZM6.84,28.27H1.39a1,1,0,0,1-1-1A1,1,0,0,1,1,26.37c1.85-1.07,2.65-4.18,3.39-6.32l6.44-18.6a1.37,1.37,0,0,1,2.67,0l6.72,20.18c.26.74.64,1.89,1.07,2.84A2.54,2.54,0,0,0,26,24.18a27,27,0,0,0,.07-2.82V7.29c0-2.53.06-4.27-1.2-5a1,1,0,0,1-.62-.92,1,1,0,0,1,1-1h7a1,1,0,0,1,1,1,1,1,0,0,1-.62.92c-1.26.73-1.2,2.47-1.2,5V22.55c.17,2.38.88,3.8,4,3.8s4.81-.93,5.78-3.78a1,1,0,0,1,2,.22v3.95a1.47,1.47,0,0,1-1.4,1.54H21.22l-.65,0A5.25,5.25,0,0,1,15.4,24c-.16-.68-1.3-4.31-1.3-4.31H7.42a27,27,0,0,0-1.26,4.76,1.9,1.9,0,0,0,1.06,1.93,1,1,0,0,1-.38,1.91ZM8.59,16.32a.44.44,0,0,0,.38.44h3.57a.43.43,0,0,0,.41-.44.59.59,0,0,0,0-.14l-1.77-5.49a.41.41,0,0,0-.37-.26.39.39,0,0,0-.37.28l-1.81,5.5A.36.36,0,0,0,8.59,16.32Z"/></g></g></svg>