<svg height="28" xmlns="http://www.w3.org/2000/svg" viewBox="0 0 175.61 27.91"><defs><style>.cls-1{fill:#fff;}</style></defs><g id="Capa_2" data-name="Capa 2"><g id="Capa_1-2" data-name="Capa 1"><path class="cls-1" d="M175.61,26.92a1,1,0,0,1-1,1h-2a5.28,5.28,0,0,1-5.17-4.28c-.15-.69-1.3-4.31-1.3-4.31h-6.67a27,27,0,0,0-1.26,4.76A1.92,1.92,0,0,0,159.28,26a1,1,0,0,1,.64.91,1,1,0,0,1-1,1h-8a8.52,8.52,0,0,1-7.58-4.53c-.38-.74-5.44-8.61-5.44-8.61a3,3,0,0,1-.42-1V21c0,2.53-.06,4.27,1.19,5a1,1,0,0,1,.63.91,1,1,0,0,1-1,1H129a8.52,8.52,0,0,1-7.45-4.29l-2.46-4.18c-1.16-1.93-2.66-4-3.65-4h-.12a.51.51,0,0,0-.41.4s0,5.29,0,5.36c0,2.39,0,4,1.2,4.75a1,1,0,0,1,.62.91,1,1,0,0,1-1,1h-7a1,1,0,0,1-1-1,1,1,0,0,1,.62-.91c1.25-.73,1.2-2.47,1.2-5V6.91c0-2.53.06-4.26-1.19-5A1,1,0,0,1,107.7,1a1,1,0,0,1,1-1h9.13c1.68.08,4.24.21,5.78,1,2.28,1.09,3.47,3.37,3.47,6.32A6.63,6.63,0,0,1,121.6,14s6.3,9.81,7.14,10.91c.11.13.55.61.64.69a1.55,1.55,0,0,0,2.19-.37c.5-.91.47-2.36.47-4.24V6.91c0-2.53.05-4.26-1.2-5a1,1,0,0,1-.62-.91,1,1,0,0,1,1-1h7a1,1,0,0,1,1,1,1,1,0,0,1-.63.91c-1.25.74-1.19,2.47-1.19,5v5.46a3,3,0,0,1,.6-1.21l6.09-7.86A.87.87,0,0,0,143.93,2a3.44,3.44,0,0,0-1.17-.39.79.79,0,0,1-.69-.81.77.77,0,0,1,.75-.8H149a1,1,0,0,1,1,1,1,1,0,0,1-.63.92,4.09,4.09,0,0,0-1.61,1.17c-.25.27-.49.56-.73.86l-5.45,7S150,24,150.39,24.49a2.52,2.52,0,0,0,4.09.08,23.61,23.61,0,0,0,2-4.87l6.43-18.61a1.37,1.37,0,0,1,2.67,0l6.73,20.19a16.59,16.59,0,0,0,1.79,4.08A2.47,2.47,0,0,0,175,26,1,1,0,0,1,175.61,26.92ZM121.28,7.8c0-3.83-1.33-5.86-4.62-5.86-.38,0-1.68,0-1.79.47V12.8h3.38a3,3,0,0,0,2.43-1.6A8.09,8.09,0,0,0,121.28,7.8ZM165,16a.57.57,0,0,0,0-.13l-1.78-5.49a.4.4,0,0,0-.37-.27.38.38,0,0,0-.36.28l-1.82,5.5a.49.49,0,0,0,0,.12.42.42,0,0,0,.37.43h3.58A.42.42,0,0,0,165,16Zm-78,10a1,1,0,0,0-.62.91,1,1,0,0,0,1,1H104a1.46,1.46,0,0,0,1.39-1.54V22.39a1,1,0,0,0-1-1,1,1,0,0,0-1,.77C102.42,25,100.8,26,97.61,26s-3.82-1.42-4-3.8V14.87H95a3.61,3.61,0,0,1,2.83,1.7,1,1,0,0,0,.94.64,1,1,0,0,0,1-1V10.88a1,1,0,0,0-1-1,1,1,0,0,0-.9.55A3.6,3.6,0,0,1,95,12.24H93.64s0-6.13,0-6.5c.15-2.24.8-3.63,3.47-3.78,2.41.11,4.06,1,4.91,3.35a1,1,0,0,0,2-.24V1.51A1.45,1.45,0,0,0,102.58,0H87.45a1,1,0,0,0-1,1,1,1,0,0,0,.62.91c1.26.74,1.2,2.47,1.2,5V21C88.25,23.51,88.31,25.25,87.05,26ZM57.63,26a1,1,0,0,0-.62.91,1,1,0,0,0,1,1h4.29a1,1,0,0,0,1-1,1,1,0,0,0-.62-.91c-.92-.54-1.14-1.63-1.18-3.19V9.08l6,17.38a2,2,0,0,0,3.78-.09L76.67,9.63V21c0,2.53.06,4.27-1.2,5a1,1,0,0,0-.62.91,1,1,0,0,0,1,1h7a1,1,0,0,0,1-1,1,1,0,0,0-.62-.91c-1.26-.73-1.2-2.47-1.2-5V6.91c0-2.53-.06-4.26,1.2-5A1,1,0,0,0,83.87,1a1,1,0,0,0-1.06-1h-5A1.2,1.2,0,0,0,76.64,1l-6,18.64L64.12,1A1.23,1.23,0,0,0,63,0H58a1,1,0,0,0-1,1,1,1,0,0,0,.62.91c1.25.74,1.19,2.47,1.19,5V21C58.83,23.51,58.88,25.25,57.63,26ZM46,26a1,1,0,0,0-.62.91,1,1,0,0,0,1,1h7a1,1,0,0,0,1-1,1,1,0,0,0-.62-.91c-1.26-.73-1.2-2.47-1.2-5V6.91c0-2.53-.06-4.26,1.2-5A1,1,0,0,0,54.43,1a1,1,0,0,0-1-1h-7a1,1,0,0,0-1,1,1,1,0,0,0,.62.91c1.26.74,1.2,2.47,1.2,5V21C47.23,23.51,47.29,25.25,46,26ZM6.46,27.89H1a1,1,0,0,1-1-1A1,1,0,0,1,.62,26c1.85-1.07,2.65-4.17,3.4-6.31L10.45,1.07a1.37,1.37,0,0,1,2.67,0l6.73,20.19c.25.74.64,1.89,1.07,2.84a2.53,2.53,0,0,0,2.3,1.46,2.5,2.5,0,0,0,2.41-1.78A26.7,26.7,0,0,0,25.71,21V6.91c0-2.53.06-4.26-1.2-5A1,1,0,0,1,23.89,1a1,1,0,0,1,1-1h7a1,1,0,0,1,1,1,1,1,0,0,1-.62.91c-1.26.74-1.2,2.47-1.2,5,0,0,0,14.9,0,15.26.16,2.38.88,3.81,4,3.81s4.81-.93,5.77-3.78a1,1,0,0,1,2,.21v3.95a1.47,1.47,0,0,1-1.39,1.55H20.84l-.65,0A5.28,5.28,0,0,1,15,23.61c-.15-.69-1.3-4.31-1.3-4.31H7.05a27,27,0,0,0-1.26,4.76,1.92,1.92,0,0,0,1,1.93,1,1,0,0,1,.64.91A1,1,0,0,1,6.46,27.89ZM8.22,16a.42.42,0,0,0,.37.43h3.58a.42.42,0,0,0,.4-.44.66.66,0,0,0,0-.14l-1.78-5.48a.4.4,0,0,0-.37-.27.38.38,0,0,0-.36.28l-1.82,5.5A.49.49,0,0,0,8.22,16Z"/></g></g></svg>