<svg height="28" xmlns="http://www.w3.org/2000/svg" viewBox="0 0 23.91 28.71"><defs><style>.cls-1{fill:#fcc01f;stroke:#000;stroke-miterlimit:10;stroke-width:0.75px;}</style></defs><g id="Capa_2" data-name="Capa 2"><g id="Capa_1-2" data-name="Capa 1"><path class="cls-1" d="M22.89,26.43A2.73,2.73,0,0,1,22,25.8a16.05,16.05,0,0,1-1.78-4.08L13.49,1.54A1.42,1.42,0,0,0,12.15.47a1.26,1.26,0,0,0-.61.16h0l0,0a1.35,1.35,0,0,0-.32.26,1.39,1.39,0,0,0-.36.58L4.39,20.1C3.65,22.24,2.85,25.34,1,26.41a1,1,0,0,0,.39,1.91H6.84a1,1,0,0,0,1-1,1,1,0,0,0-.63-.92,1.92,1.92,0,0,1-1.06-1.93,27,27,0,0,1,1.26-4.76h3.67v0h3s1.14,3.63,1.3,4.31a5.26,5.26,0,0,0,5.17,4.28h2a1,1,0,0,0,1-1A1,1,0,0,0,22.89,26.43Zm-10.36-9.6h-1v0H9a.44.44,0,0,1-.38-.44.5.5,0,0,1,0-.12l1.81-5.5a.41.41,0,0,1,.37-.28.37.37,0,0,1,.3.18.91.91,0,0,1,.06.11l1.77,5.49a.59.59,0,0,1,0,.14A.43.43,0,0,1,12.53,16.83Z"/></g></g></svg>