<svg height="58" xmlns="http://www.w3.org/2000/svg" viewBox="0 0 23.16 27.86"><defs><style>.cls-1{fill:#fff;}</style></defs><g id="Capa_2" data-name="Capa 2"><g id="Capa_1-2" data-name="Capa 1"><path class="cls-1" d="M22.52,26a2.6,2.6,0,0,1-.89-.62,16.59,16.59,0,0,1-1.79-4.08L13.11,1.06A1.41,1.41,0,0,0,11.78,0a1.23,1.23,0,0,0-.61.16h0l0,0a1.35,1.35,0,0,0-.32.27,1.36,1.36,0,0,0-.36.57L4,19.62c-.75,2.15-1.55,5.25-3.4,6.32a1,1,0,0,0-.62.91,1,1,0,0,0,1,1H6.46a1,1,0,0,0,.38-1.91,1.9,1.9,0,0,1-1-1.93,27.07,27.07,0,0,1,1.26-4.75h3.67v0h3s1.15,3.62,1.3,4.31a5.28,5.28,0,0,0,5.17,4.28h2a1,1,0,0,0,1-1A1,1,0,0,0,22.52,26Zm-10.36-9.6h-1v0H8.59a.42.42,0,0,1-.37-.43.49.49,0,0,1,0-.12l1.82-5.5a.38.38,0,0,1,.36-.28.4.4,0,0,1,.31.18l0,.11,1.78,5.48a.66.66,0,0,1,0,.14A.42.42,0,0,1,12.16,16.35Z"/></g></g></svg>